<svg width="92" height="92" viewBox="0 0 92 92" fill="none" xmlns="http://www.w3.org/2000/svg">
<path d="M34.436 15.9023C34.6474 16.0768 34.722 16.2818 34.8242 16.5323C34.8423 16.5764 34.8605 16.6205 34.8792 16.666C34.919 16.7626 34.9585 16.8593 34.9978 16.956C35.084 17.1682 35.1713 17.3798 35.2586 17.5916C35.3055 17.7053 35.3523 17.8191 35.3991 17.9328C35.6462 18.5334 35.899 19.1314 36.1522 19.7294C36.5902 20.7636 37.0257 21.7989 37.4589 22.8352C37.861 23.797 38.2648 24.7581 38.6705 25.7184C38.6963 25.7796 38.7222 25.8408 38.7488 25.9038C38.9321 26.3376 39.1155 26.7714 39.2989 27.2052C39.5084 27.7008 39.7179 28.1964 39.9273 28.692C39.9531 28.7532 39.979 28.8144 40.0056 28.8774C40.4098 29.8343 40.8116 30.7921 41.2122 31.7505C41.591 32.6567 41.9721 33.5619 42.3546 34.4666C42.7864 35.488 43.2159 36.5102 43.6436 37.5333C44.0224 38.4395 44.4035 39.3448 44.786 40.2495C45.2563 41.3619 45.7241 42.4754 46.1899 43.5897C46.2127 43.6444 46.2356 43.699 46.2591 43.7553C46.3038 43.8623 46.3485 43.9693 46.3932 44.0763C46.5091 44.354 46.626 44.6312 46.744 44.9079C46.7685 44.9655 46.793 45.0231 46.8182 45.0824C46.8652 45.1928 46.9124 45.3031 46.9598 45.4134C47.1189 45.7877 47.1189 45.7877 47.1189 45.9338C38.3579 45.9338 29.5968 45.9338 20.5703 45.9338C20.6315 45.6276 20.7283 45.3814 20.8596 45.1026C20.894 45.0285 20.894 45.0285 20.9291 44.9529C21.0049 44.7896 21.0813 44.6265 21.1576 44.4634C21.2113 44.348 21.265 44.2326 21.3186 44.1172C21.43 43.8775 21.5416 43.6378 21.6533 43.3981C21.8815 42.9082 22.1076 42.4173 22.3337 41.9264C22.9182 40.658 23.5057 39.3911 24.0932 38.1241C24.3278 37.6181 24.5622 37.1121 24.7967 36.6061C24.8745 36.4384 24.9522 36.2706 25.0299 36.1029C25.2672 35.591 25.5044 35.0791 25.7414 34.5672C25.8755 34.2776 26.0096 33.9881 26.1437 33.6986C26.17 33.6419 26.1962 33.5852 26.2233 33.5268C26.5877 32.7403 26.9536 31.9545 27.3207 31.1692C27.6613 30.44 27.9983 29.7091 28.3352 28.9782C28.7389 28.1026 29.1454 27.2283 29.5537 26.3548C29.8773 25.6624 30.1987 24.9689 30.5203 24.2756C30.6222 24.056 30.7243 23.8364 30.8264 23.6168C31.2668 22.6693 31.7052 21.7207 32.1427 20.7718C32.5121 19.9707 32.8836 19.1706 33.2574 18.3716C33.4433 17.9742 33.6283 17.5763 33.8115 17.1776C33.8393 17.1172 33.8393 17.1172 33.8676 17.0556C33.9556 16.8641 34.0434 16.6725 34.131 16.4809C34.1616 16.4142 34.1922 16.3476 34.2237 16.2789C34.264 16.1909 34.264 16.1909 34.3051 16.1011C34.3703 15.9681 34.3703 15.9681 34.436 15.9023ZM33.1217 21.2909C33.1063 21.3271 33.0909 21.3632 33.075 21.4005C32.6664 22.3548 32.2382 23.2989 31.7984 24.2392C31.6358 24.5873 31.4741 24.9359 31.3128 25.2846C31.274 25.3685 31.274 25.3685 31.2344 25.454C31.1812 25.5689 31.1281 25.6838 31.0749 25.7987C30.6468 26.7238 30.2168 27.648 29.7836 28.5706C29.3948 29.3985 29.0093 30.2277 28.6247 31.0575C28.4905 31.3469 28.3561 31.6362 28.2217 31.9255C27.9377 32.537 27.6539 33.1486 27.3707 33.7605C27.2643 33.9904 27.1578 34.2203 27.0514 34.4502C27.0246 34.508 26.9979 34.5658 26.9703 34.6253C26.5992 35.4269 26.2254 36.2271 25.8492 37.0263C25.5447 37.6738 25.2472 38.3242 24.9526 38.9763C24.5927 39.773 24.2231 40.5647 23.8478 41.3543C23.8229 41.4066 23.7981 41.459 23.7725 41.5129C23.7228 41.6173 23.6732 41.7218 23.6236 41.8262C23.5993 41.8773 23.575 41.9283 23.55 41.9809C23.526 42.0315 23.502 42.082 23.4772 42.1341C23.2567 42.5985 23.0374 43.0634 22.82 43.5292C22.7648 43.6474 22.7094 43.7655 22.6539 43.8836C22.6215 43.9533 22.589 44.023 22.5556 44.0948C22.5132 44.1856 22.5132 44.1856 22.47 44.2781C22.4019 44.4166 22.4019 44.4166 22.4103 44.5538C29.0461 44.5538 35.682 44.5538 42.5189 44.5538C42.4659 44.2891 42.4047 44.0848 42.3047 43.838C42.2581 43.7221 42.2581 43.7221 42.2104 43.6039C42.176 43.5193 42.1416 43.4347 42.1071 43.3501C42.0712 43.2613 42.0353 43.1724 41.9995 43.0836C41.9028 42.8443 41.8058 42.6052 41.7088 42.3661C41.6071 42.1155 41.5057 41.8646 41.4043 41.6138C41.2401 41.2078 41.0757 40.8019 40.9113 40.396C40.708 39.8943 40.5051 39.3925 40.3026 38.8905C40.274 38.8196 40.2453 38.7487 40.2159 38.6757C40.1597 38.5364 40.1034 38.3971 40.0472 38.2578C39.9083 37.9135 39.7691 37.5691 39.63 37.2248C39.3185 36.4537 39.007 35.6825 38.6956 34.9113C38.5515 34.5545 38.4074 34.1978 38.2634 33.8411C38.2349 33.7705 38.2064 33.7 38.177 33.6273C38.0059 33.2035 37.8347 32.7796 37.6635 32.3558C37.0683 30.8821 36.4732 29.4084 35.8786 27.9345C35.6894 27.4657 35.5003 26.997 35.3112 26.5283C35.1521 26.134 34.993 25.7397 34.8339 25.3454C34.6764 24.955 34.5189 24.5646 34.3613 24.1742C34.3026 24.0289 34.244 23.8836 34.1854 23.7383C33.8558 22.9212 33.5244 22.105 33.1875 21.2909C33.1658 21.2909 33.1441 21.2909 33.1217 21.2909Z" fill="white"/>
<path d="M50.9273 14.3121C50.9888 14.3117 51.0504 14.3113 51.1138 14.3109C51.2437 14.3103 51.3736 14.3099 51.5034 14.3096C51.6972 14.309 51.891 14.307 52.0848 14.3049C55.5701 14.2854 58.9041 15.695 61.4426 18.0711C61.5752 18.2114 61.7007 18.3528 61.8215 18.5032C61.9002 18.6061 61.9002 18.6061 62.0341 18.6626C62.0585 18.5867 62.0829 18.5108 62.108 18.4326C62.187 18.1925 62.2759 17.9582 62.3695 17.7235C62.7324 16.801 62.9419 15.8303 63.0855 14.8511C63.4325 14.8511 63.7794 14.8511 64.1369 14.8511C64.1963 15.8851 64.2255 16.9189 64.2491 17.9542C64.2533 18.1362 64.2576 18.3182 64.2619 18.5002C64.272 18.931 64.282 19.3618 64.2918 19.7925C64.3019 20.2315 64.3122 20.6705 64.3226 21.1095C64.3317 21.4912 64.3406 21.8729 64.3494 22.2546C64.3546 22.4805 64.3599 22.7063 64.3653 22.9322C64.3923 24.0721 64.4052 25.2109 64.3998 26.3511C64.0745 26.3511 63.7492 26.3511 63.4141 26.3511C63.3299 26.0985 63.2622 25.8845 63.2141 25.6288C63.2021 25.567 63.19 25.5052 63.1777 25.4415C63.1649 25.3758 63.1521 25.31 63.1389 25.2422C62.6718 22.9304 61.8841 20.666 60.3255 18.8597C60.2482 18.7581 60.2482 18.7581 60.1694 18.6544C58.8067 17.1619 56.747 16.2058 54.8055 15.7711C54.7575 15.7604 54.7096 15.7496 54.6601 15.7385C53.2536 15.4409 51.6017 15.4196 50.2055 15.7711C50.1548 15.7831 50.1042 15.7952 50.052 15.8075C47.7168 16.3747 45.7899 17.9581 44.5392 19.984C43.7045 21.3847 43.1236 22.9125 42.7956 24.5103C42.7722 24.6209 42.7436 24.7305 42.7141 24.8397C42.6707 24.8614 42.6273 24.8831 42.5826 24.9054C42.116 23.8319 41.6615 22.7535 41.2134 21.6722C41.1571 21.5362 41.1007 21.4003 41.0441 21.2645C40.9637 21.0711 40.8837 20.8776 40.8037 20.6841C40.7675 20.5972 40.7675 20.5972 40.7306 20.5085C40.6052 20.2037 40.4857 19.9048 40.4141 19.5826C40.4954 19.417 40.4954 19.417 40.6317 19.2663C40.6811 19.2103 40.7305 19.1543 40.7814 19.0966C40.8337 19.0401 40.8859 18.9836 40.9398 18.9254C40.9873 18.871 41.0348 18.8165 41.0838 18.7604C41.2302 18.5936 41.3799 18.4306 41.5312 18.2683C41.5788 18.2164 41.6264 18.1644 41.6755 18.1109C42.3928 17.3583 43.257 16.7417 44.1598 16.2311C44.1997 16.2081 44.2395 16.1852 44.2806 16.1615C46.2678 15.0234 48.63 14.3233 50.9273 14.3121Z" fill="white"/>
<path d="M63.4158 33.6484C63.7411 33.6484 64.0664 33.6484 64.4016 33.6484C64.4016 37.1615 64.4016 40.6746 64.4016 44.2942C64.0763 44.2942 63.751 44.2942 63.4158 44.2942C63.3213 44.0503 63.2308 43.8086 63.1556 43.5579C62.9098 42.7526 62.5546 41.9404 62.0358 41.2713C61.8415 41.3584 61.7101 41.4514 61.564 41.6058C61.5251 41.6461 61.4862 41.6865 61.4461 41.7281C61.4049 41.7712 61.3637 41.8142 61.3212 41.8586C60.8668 42.323 60.3898 42.7264 59.8673 43.1113C59.8131 43.152 59.7588 43.1928 59.703 43.2348C59.5416 43.3522 59.3776 43.4627 59.2101 43.5713C59.1734 43.5952 59.1367 43.6192 59.0988 43.6438C56.7104 45.1787 53.9857 45.6337 51.193 45.6084C51.0938 45.3828 50.9955 45.1568 50.8973 44.9308C50.8691 44.8666 50.8409 44.8024 50.8118 44.7363C50.7851 44.6747 50.7584 44.6131 50.7309 44.5496C50.7062 44.4928 50.6814 44.436 50.6559 44.3775C50.6016 44.2284 50.6016 44.2284 50.6016 44.0313C50.6652 44.0405 50.7288 44.0497 50.7943 44.0592C51.4353 44.148 52.0654 44.1892 52.7126 44.1874C52.7594 44.1874 52.8062 44.1873 52.8543 44.1873C53.6807 44.1849 54.4649 44.1021 55.2673 43.8999C55.3397 43.8825 55.3397 43.8825 55.4136 43.8647C56.9068 43.4988 58.3824 42.8152 59.5387 41.797C59.6097 41.7407 59.6809 41.6845 59.7523 41.6286C60.5858 40.8898 61.201 39.8872 61.7073 38.9056C61.7436 38.8355 61.7436 38.8355 61.7806 38.764C62.563 37.2342 63.1258 35.5835 63.3265 33.8733C63.3501 33.7142 63.3501 33.7142 63.4158 33.6484Z" fill="white"/>
<path d="M22.1445 67.0312C23.2071 67.0312 24.2697 67.0312 25.3645 67.0312C25.3645 67.118 25.3645 67.2047 25.3645 67.2941C25.0609 67.3375 24.7573 67.3808 24.4445 67.4255C24.3849 67.7238 24.3646 68.0017 24.358 68.3037C24.3568 68.3499 24.3556 68.396 24.3543 68.4436C24.3498 68.6149 24.3459 68.7862 24.3419 68.9575C24.3324 69.3411 24.3229 69.7246 24.3131 70.1198C25.4841 70.1198 26.6552 70.1198 27.8617 70.1198C27.8535 69.7959 27.8454 69.472 27.837 69.1382C27.8348 69.0372 27.8326 68.9363 27.8303 68.8322C27.817 68.3721 27.7992 67.9348 27.6645 67.4912C27.4129 67.3082 27.0499 67.3194 26.7445 67.2941C26.7445 67.2074 26.7445 67.1206 26.7445 67.0312C27.8071 67.0312 28.8697 67.0312 29.9645 67.0312C29.9645 67.118 29.9645 67.2047 29.9645 67.2941C29.9091 67.3021 29.8537 67.31 29.7967 67.3182C29.7246 67.3292 29.6526 67.3403 29.5785 67.3516C29.471 67.3676 29.471 67.3676 29.3613 67.384C29.1681 67.4099 29.1681 67.4099 29.0445 67.557C28.9503 67.8071 28.9686 68.0745 28.9682 68.3381C28.9679 68.39 28.9676 68.442 28.9672 68.4955C28.9663 68.6671 28.9658 68.8388 28.9655 69.0104C28.9651 69.1299 28.9647 69.2494 28.9643 69.3689C28.9636 69.6193 28.9633 69.8698 28.963 70.1202C28.9627 70.4408 28.9611 70.7613 28.9592 71.0819C28.958 71.3287 28.9577 71.5755 28.9576 71.8223C28.9574 71.9405 28.9568 72.0586 28.956 72.1768C28.9548 72.3423 28.955 72.5077 28.9554 72.6731C28.9548 72.7217 28.9542 72.7703 28.9536 72.8203C28.956 73.1283 29.0076 73.3435 29.176 73.6027C29.368 73.6782 29.368 73.6782 29.5826 73.693C29.654 73.7017 29.7254 73.7103 29.799 73.7192C29.8809 73.7266 29.8809 73.7266 29.9645 73.7341C29.9645 73.8425 29.9645 73.951 29.9645 74.0627C28.9019 74.0627 27.8393 74.0627 26.7445 74.0627C26.7445 73.9542 26.7445 73.8458 26.7445 73.7341C26.8265 73.7233 26.8265 73.7233 26.9101 73.7123C26.9815 73.7019 27.0529 73.6914 27.1265 73.6807C27.1974 73.6708 27.2683 73.6609 27.3414 73.6507C27.5822 73.5909 27.5822 73.5909 27.7302 73.4055C27.7927 73.0594 27.8092 72.7192 27.8168 72.3687C27.818 72.3214 27.8192 72.2741 27.8205 72.2253C27.8249 72.0506 27.8289 71.8758 27.8329 71.7011C27.8424 71.3094 27.8519 70.9177 27.8617 70.5141C26.6906 70.5141 25.5196 70.5141 24.3131 70.5141C24.3199 70.9627 24.3267 71.4114 24.3336 71.8736C24.3353 72.0147 24.3369 72.1558 24.3386 72.3011C24.3407 72.4135 24.3429 72.5259 24.3452 72.6383C24.3456 72.6962 24.346 72.7541 24.3464 72.8138C24.3537 73.1263 24.3653 73.3534 24.576 73.6027C24.7688 73.6705 24.7688 73.6705 24.9826 73.6889C25.054 73.6982 25.1254 73.7074 25.199 73.7169C25.2809 73.7254 25.2809 73.7254 25.3645 73.7341C25.3645 73.8425 25.3645 73.951 25.3645 74.0627C24.3019 74.0627 23.2393 74.0627 22.1445 74.0627C22.1445 73.9542 22.1445 73.8458 22.1445 73.7341C22.1992 73.7277 22.2538 73.7212 22.3101 73.7146C22.3815 73.7048 22.4529 73.6949 22.5265 73.6848C22.6328 73.6711 22.6328 73.6711 22.7414 73.6571C22.9325 73.6168 22.9325 73.6168 23.053 73.5031C23.2979 72.9856 23.2056 72.299 23.2047 71.7362C23.2047 71.6385 23.2048 71.5407 23.2049 71.4429C23.205 71.2389 23.2048 71.0348 23.2045 70.8307C23.2042 70.5708 23.2044 70.3109 23.2048 70.051C23.205 69.8494 23.2049 69.6477 23.2048 69.446C23.2047 69.3503 23.2048 69.2545 23.2049 69.1588C23.26 68.253 23.26 68.253 22.9988 67.4255C22.7946 67.3726 22.7946 67.3726 22.5635 67.3475C22.4463 67.3319 22.4463 67.3319 22.3268 67.3159C22.2666 67.3087 22.2065 67.3015 22.1445 67.2941C22.1445 67.2074 22.1445 67.1206 22.1445 67.0312Z" fill="white"/>
<path d="M44.9478 56.0547C46.7694 56.0547 48.591 56.0547 50.4678 56.0547C50.5432 56.2055 50.5527 56.317 50.5687 56.4847C50.5744 56.5444 50.5802 56.6042 50.586 56.6658C50.5918 56.7284 50.5975 56.791 50.6034 56.8556C50.6123 56.9476 50.6123 56.9476 50.6215 57.0416C50.6523 57.3714 50.6718 57.6949 50.665 58.0261C50.5565 58.0261 50.4481 58.0261 50.3364 58.0261C50.3118 57.954 50.2871 57.8819 50.2617 57.8077C50.2278 57.7121 50.1938 57.6165 50.1598 57.5209C50.1357 57.4498 50.1357 57.4498 50.1112 57.3773C49.9671 56.978 49.7938 56.7363 49.403 56.5407C49.1555 56.4387 48.9315 56.4209 48.663 56.4153C48.5814 56.4132 48.4999 56.411 48.4158 56.4088C48.3137 56.4071 48.2115 56.4055 48.1062 56.4038C47.7796 56.397 47.4529 56.3902 47.1164 56.3833C47.1164 57.4025 47.1164 58.4217 47.1164 59.4718C48.3627 59.5215 48.3627 59.5215 48.825 59.209C48.9501 58.9336 48.9863 58.6536 49.0221 58.3547C49.1305 58.3547 49.239 58.3547 49.3507 58.3547C49.3507 59.2221 49.3507 60.0895 49.3507 60.9833C49.2423 60.9833 49.1338 60.9833 49.0221 60.9833C49.0157 60.9294 49.0092 60.8755 49.0026 60.82C48.9928 60.7492 48.983 60.6784 48.9728 60.6054C48.9637 60.5353 48.9545 60.4651 48.9451 60.3929C48.8817 60.162 48.8184 60.0744 48.6278 59.9318C48.3214 59.847 48.0032 59.8444 47.6873 59.8292C47.6324 59.8263 47.5774 59.8235 47.5208 59.8206C47.386 59.8136 47.2512 59.807 47.1164 59.8004C47.1226 60.1498 47.1296 60.4991 47.1373 60.8484C47.1398 60.9669 47.142 61.0854 47.1441 61.2038C47.1563 61.8862 47.1825 62.5458 47.3135 63.2175C48.1642 63.4016 49.22 63.5198 49.9996 63.0492C50.6023 62.5944 50.7871 61.9396 50.9935 61.2461C51.102 61.2461 51.2104 61.2461 51.3221 61.2461C51.3439 62.0923 51.2681 62.892 51.1907 63.7433C49.0872 63.7433 46.9837 63.7433 44.8164 63.7433C44.8164 63.6348 44.8164 63.5264 44.8164 63.4147C44.8758 63.4035 44.9352 63.3923 44.9964 63.3808C45.0739 63.3649 45.1514 63.349 45.2312 63.3325C45.3082 63.3173 45.3852 63.302 45.4646 63.2863C45.7045 63.2063 45.7508 63.1749 45.8678 62.9547C45.8966 62.7571 45.8941 62.5613 45.8923 62.362C45.8925 62.3021 45.8928 62.2422 45.893 62.1806C45.8936 61.9827 45.8927 61.7849 45.8917 61.587C45.8917 61.4495 45.8917 61.312 45.8918 61.1745C45.8918 60.8864 45.8911 60.5983 45.8899 60.3101C45.8884 59.9407 45.8884 59.5712 45.8888 59.2017C45.8891 58.9178 45.8886 58.6339 45.888 58.35C45.8877 58.2138 45.8877 58.0775 45.8878 57.9413C45.8878 57.7509 45.887 57.5606 45.8859 57.3703C45.886 57.3139 45.8862 57.2575 45.8864 57.1993C45.8859 57.1474 45.8854 57.0954 45.885 57.0419C45.8848 56.9969 45.8847 56.952 45.8846 56.9056C45.8644 56.7516 45.8173 56.6468 45.7364 56.5147C45.5765 56.4347 45.4461 56.428 45.2682 56.412C45.2084 56.4065 45.1486 56.401 45.087 56.3953C45.0411 56.3913 44.9951 56.3874 44.9478 56.3833C44.9478 56.2748 44.9478 56.1664 44.9478 56.0547Z" fill="white"/>
<path d="M62.6084 56.4794C62.8148 56.6183 63.0175 56.7605 63.2176 56.9084C63.2263 56.8632 63.235 56.8181 63.244 56.7716C63.2556 56.7124 63.2672 56.6531 63.2792 56.5921C63.2906 56.5334 63.3021 56.4747 63.3138 56.4142C63.349 56.2512 63.349 56.2512 63.4147 56.0541C63.5232 56.0541 63.6316 56.0541 63.7433 56.0541C63.765 57.03 63.7867 58.0058 63.809 59.0112C63.7006 59.0112 63.5922 59.0112 63.4804 59.0112C63.466 58.9492 63.4516 58.8872 63.4368 58.8233C63.2328 57.9812 62.9833 57.2177 62.2319 56.7112C61.5228 56.3222 60.7787 56.1833 59.9812 56.3868C59.3835 56.5954 58.977 57.0159 58.6833 57.5655C58.1134 58.7767 58.034 60.2956 58.4204 61.5741C58.6931 62.2747 59.1011 62.8942 59.8004 63.217C60.5728 63.497 61.2439 63.4596 62.0034 63.1492C62.6107 62.8424 62.9722 62.3284 63.2176 61.7055C63.3147 61.401 63.4006 61.0951 63.4804 60.7855C63.5889 60.7855 63.6973 60.7855 63.809 60.7855C63.809 61.6963 63.809 62.6071 63.809 63.5455C63.7006 63.5455 63.5922 63.5455 63.4804 63.5455C63.3937 63.3287 63.307 63.1118 63.2176 62.8884C63.0299 62.8884 62.9661 62.9783 62.8233 63.0979C62.2361 63.5642 61.601 63.8147 60.8519 63.8741C60.8097 63.8777 60.7675 63.8812 60.724 63.8849C59.701 63.9277 58.7139 63.596 57.9317 62.9377C57.1405 62.1712 56.8314 61.2051 56.7776 60.1284C56.7669 58.9569 57.1148 57.7016 57.9458 56.8401C59.2355 55.7023 61.1683 55.5651 62.6084 56.4794Z" fill="white"/>
<path d="M46.065 67.0303C46.3536 67.0123 46.642 66.9993 46.931 66.9906C47.029 66.987 47.127 66.9821 47.2248 66.9758C48.0325 66.9252 48.0325 66.9252 48.3527 67.174C48.5058 67.3595 48.6334 67.5484 48.7593 67.7532C48.8324 67.8523 48.9064 67.9507 48.9814 68.0484C49.0513 68.1443 49.121 68.2403 49.1906 68.3364C49.5234 68.7923 49.8617 69.2436 50.205 69.6918C50.588 70.1919 50.9652 70.6958 51.3367 71.2046C51.5189 71.4538 51.7039 71.7003 51.8938 71.9437C51.9346 71.996 51.9754 72.0484 52.0175 72.1023C52.0482 72.1417 52.079 72.1812 52.1107 72.2218C52.1138 71.6705 52.1161 71.1193 52.1175 70.568C52.1182 70.312 52.1192 70.0561 52.1207 69.8001C52.1221 69.5529 52.1229 69.3058 52.1232 69.0587C52.1234 68.9645 52.1239 68.8703 52.1246 68.7761C52.1256 68.644 52.1256 68.5119 52.1257 68.3797C52.1259 68.3046 52.1262 68.2294 52.1265 68.152C52.1105 67.9467 52.0719 67.8049 51.9793 67.6218C51.6986 67.3849 51.3458 67.3513 50.9936 67.2932C50.9936 67.2065 50.9936 67.1197 50.9936 67.0303C51.8393 67.0303 52.6851 67.0303 53.5565 67.0303C53.5565 67.1171 53.5565 67.2038 53.5565 67.2932C53.5018 67.3084 53.4472 67.3235 53.3909 67.3391C53.3195 67.3606 53.2481 67.382 53.1745 67.4041C53.1036 67.4247 53.0327 67.4453 52.9596 67.4665C52.7207 67.5781 52.6781 67.6449 52.5707 67.8846C52.5417 68.0901 52.542 68.2937 52.5423 68.501C52.5417 68.5626 52.541 68.6242 52.5403 68.6876C52.5383 68.8907 52.5377 69.0937 52.5371 69.2967C52.536 69.4377 52.5348 69.5787 52.5335 69.7196C52.5304 70.0903 52.5285 70.4609 52.5267 70.8316C52.5248 71.21 52.5217 71.5884 52.5188 71.9667C52.5131 72.7089 52.5087 73.451 52.505 74.1932C52.1914 74.2066 52.1914 74.2066 52.0572 74.0863C52.0208 74.0365 51.9843 73.9866 51.9467 73.9352C51.9051 73.8794 51.8634 73.8236 51.8205 73.7661C51.7767 73.7051 51.7329 73.6441 51.6877 73.5812C51.6414 73.5186 51.5951 73.456 51.5474 73.3915C51.4056 73.1994 51.2653 73.0064 51.125 72.8132C51.0463 72.7061 50.9675 72.599 50.8886 72.4921C50.7765 72.3401 50.6644 72.1881 50.5527 72.0357C50.2662 71.6451 49.9737 71.2593 49.6793 70.8746C49.3066 70.3875 48.9386 69.8973 48.5765 69.4022C48.2038 68.893 47.8241 68.3891 47.445 67.8846C47.4405 68.5644 47.437 69.2442 47.4348 69.9239C47.4338 70.2396 47.4324 70.5552 47.4302 70.8709C47.428 71.1755 47.4268 71.4802 47.4263 71.7848C47.426 71.901 47.4252 72.0172 47.4242 72.1334C47.4227 72.2963 47.4226 72.459 47.4226 72.6219C47.4219 72.6699 47.4212 72.7178 47.4205 72.7673C47.4222 73.0568 47.4639 73.2401 47.6422 73.4703C47.775 73.5485 47.775 73.5485 47.9256 73.5853C47.9774 73.6003 48.0292 73.6153 48.0827 73.6308C48.2634 73.6747 48.4433 73.7095 48.6279 73.7332C48.6279 73.8416 48.6279 73.9501 48.6279 74.0618C47.7388 74.0618 46.8497 74.0618 45.9336 74.0618C45.9336 73.9533 45.9336 73.8449 45.9336 73.7332C45.993 73.7173 46.0524 73.7013 46.1135 73.6849C46.2298 73.6519 46.2298 73.6519 46.3484 73.6182C46.4254 73.5968 46.5024 73.5755 46.5818 73.5535C46.8119 73.4606 46.8672 73.4211 46.985 73.2075C47.0041 73.0319 47.012 72.8718 47.0105 72.6963C47.011 72.6195 47.011 72.6195 47.0116 72.5411C47.0124 72.3719 47.0119 72.2028 47.0112 72.0336C47.0113 71.9157 47.0115 71.7979 47.0118 71.68C47.0121 71.4329 47.0116 71.1858 47.0107 70.9388C47.0096 70.6228 47.0102 70.3068 47.0114 69.9908C47.0121 69.7473 47.0119 69.5039 47.0114 69.2604C47.0113 69.1439 47.0114 69.0275 47.0119 68.911C47.0124 68.7477 47.0116 68.5845 47.0105 68.4213C47.0109 68.3736 47.0113 68.3259 47.0117 68.2767C47.0076 67.9423 46.9439 67.7149 46.7879 67.4246C46.6119 67.3417 46.6119 67.3417 46.4141 67.3302C46.3488 67.3221 46.2835 67.3141 46.2162 67.3058C46.1663 67.3016 46.1164 67.2975 46.065 67.2932C46.065 67.2065 46.065 67.1197 46.065 67.0303Z" fill="white"/>
<path d="M61.8043 66.8734C61.8904 66.8723 61.8904 66.8723 61.9781 66.8711C62.5277 66.8735 63.0325 66.9916 63.5006 67.2882C63.5813 67.3392 63.5813 67.3392 63.6636 67.3912C63.829 67.5033 63.9862 67.6214 64.1372 67.7523C64.2022 67.5355 64.2673 67.3186 64.3343 67.0952C64.4428 67.0952 64.5512 67.0952 64.6629 67.0952C64.6629 67.8976 64.6629 68.6999 64.6629 69.5266C64.5545 69.5266 64.446 69.5266 64.3343 69.5266C64.3152 69.4623 64.296 69.398 64.2763 69.3318C64.058 68.6234 63.8002 67.9757 63.1515 67.5552C62.5024 67.2188 61.8831 67.1514 61.18 67.358C60.9699 67.4504 60.7798 67.56 60.5886 67.6866C60.529 67.7259 60.4693 67.7652 60.4079 67.8057C59.7002 68.4938 59.6077 69.5418 59.5865 70.4795C59.6087 71.4018 59.7017 72.4321 60.3727 73.126C60.8234 73.5491 61.289 73.7688 61.9093 73.8045C62.3977 73.788 62.8552 73.664 63.2565 73.3822C63.5556 73.0255 63.5754 72.6491 63.5663 72.2045C63.5666 72.1254 63.5666 72.1254 63.5669 72.0448C63.5646 71.7866 63.5604 71.6515 63.4143 71.4323C63.2252 71.3795 63.2252 71.3795 63.0118 71.3543C62.9038 71.3387 62.9038 71.3387 62.7936 71.3227C62.7382 71.3155 62.6828 71.3083 62.6258 71.3009C62.6258 71.1925 62.6258 71.084 62.6258 70.9723C63.6233 70.9723 64.6208 70.9723 65.6486 70.9723C65.6486 71.0808 65.6486 71.1892 65.6486 71.3009C65.6035 71.3066 65.5583 71.3123 65.5118 71.3181C65.4526 71.3273 65.3934 71.3366 65.3324 71.3461C65.2737 71.3545 65.215 71.3629 65.1545 71.3715C64.9322 71.4545 64.8964 71.5492 64.7943 71.7609C64.7615 71.9701 64.7615 71.9701 64.7607 72.1955C64.7572 72.3184 64.7572 72.3184 64.7536 72.4438C64.7522 72.5289 64.7507 72.6139 64.7492 72.7014C64.7469 72.7877 64.7447 72.874 64.7423 72.9629C64.7369 73.1756 64.7324 73.3882 64.7286 73.6009C64.6734 73.6084 64.6182 73.616 64.5614 73.6237C64.1321 73.6855 63.7258 73.7597 63.3158 73.9007C62.3603 74.2195 61.1872 74.323 60.26 73.8638C60.204 73.8367 60.1479 73.8095 60.0901 73.7816C59.2177 73.3092 58.6991 72.578 58.409 71.6456C58.2354 70.8954 58.249 69.9081 58.5515 69.198C58.5812 69.1256 58.6109 69.0532 58.6416 68.9786C59.0208 68.1411 59.579 67.4421 60.4572 67.0952C60.9125 66.9288 61.3207 66.867 61.8043 66.8734Z" fill="white"/>
<path d="M14.2151 55.9219C14.39 55.989 14.39 55.989 14.5111 56.1929C14.5503 56.2851 14.5882 56.3778 14.6249 56.471C14.646 56.5216 14.6671 56.5722 14.6889 56.6243C14.7588 56.7927 14.827 56.9617 14.8952 57.1308C14.944 57.249 14.9929 57.3671 15.0419 57.4852C15.1451 57.7344 15.2476 57.9838 15.3497 58.2334C15.5047 58.6124 15.6621 58.9903 15.8203 59.3679C15.8459 59.4289 15.8715 59.49 15.8978 59.5529C15.949 59.675 16.0002 59.797 16.0514 59.9191C16.1269 60.0993 16.2024 60.2795 16.2778 60.4597C16.3943 60.738 16.511 61.0163 16.6277 61.2946C16.6857 61.4329 16.7435 61.5713 16.8014 61.7096C16.8923 61.9264 16.984 62.1429 17.0761 62.3591C17.1007 62.4182 17.1253 62.4772 17.1506 62.5381C17.2677 62.8103 17.3669 63.0345 17.61 63.2175C17.748 63.2755 17.748 63.2755 17.8893 63.2997C18.0113 63.3241 18.0113 63.3241 18.1357 63.349C18.1357 63.4791 18.1357 63.6092 18.1357 63.7433C17.1382 63.7433 16.1406 63.7433 15.1129 63.7433C15.1129 63.6348 15.1129 63.5264 15.1129 63.4147C15.3731 63.3496 15.6333 63.2846 15.9014 63.2175C15.9789 62.9077 15.9349 62.8214 15.8177 62.5311C15.8018 62.491 15.7858 62.4508 15.7693 62.4094C15.7182 62.2815 15.6661 62.154 15.6139 62.0265C15.5793 61.9402 15.5447 61.8538 15.5102 61.7675C15.3551 61.3706 15.3551 61.3706 15.1786 60.9833C14.2461 60.9833 13.3136 60.9833 12.3529 60.9833C12.2675 61.2015 12.1821 61.4197 12.0941 61.6445C12.0673 61.7124 12.0404 61.7802 12.0128 61.8501C11.7879 62.4126 11.7879 62.4126 11.802 63.0068C11.9202 63.1955 12.0213 63.2317 12.2296 63.3038C12.2894 63.3252 12.3493 63.3467 12.4109 63.3687C12.4568 63.3839 12.5027 63.3991 12.55 63.4147C12.55 63.5231 12.55 63.6315 12.55 63.7433C11.791 63.7433 11.032 63.7433 10.25 63.7433C10.25 63.6131 10.25 63.483 10.25 63.349C10.3762 63.3083 10.5024 63.2677 10.6286 63.227C11.0235 63.0251 11.1869 62.694 11.3487 62.3047C11.3708 62.2533 11.3929 62.2019 11.4156 62.1489C11.488 61.9798 11.5591 61.8101 11.63 61.6404C11.6794 61.5231 11.7289 61.4059 11.7784 61.2886C11.9104 60.9746 12.0411 60.66 12.1715 60.3453C12.3142 60.0009 12.4574 59.6567 12.6006 59.3124C12.6293 59.2433 12.6581 59.1741 12.6877 59.1028C12.9503 58.4711 13.214 57.8397 13.479 57.209C13.5249 57.0997 13.5707 56.9903 13.6165 56.881C13.6793 56.7308 13.7424 56.5808 13.8055 56.4307C13.824 56.3865 13.8425 56.3422 13.8615 56.2966C14.0189 55.9236 14.0189 55.9236 14.2151 55.9219ZM13.7329 57.5004C13.576 57.8768 13.4193 58.2533 13.2628 58.6299C13.2095 58.7579 13.1563 58.8859 13.1029 59.0138C13.0261 59.1981 12.9495 59.3824 12.8729 59.5668C12.8492 59.6237 12.8254 59.6806 12.8009 59.7392C12.7786 59.7931 12.7562 59.847 12.7332 59.9026C12.7136 59.9496 12.6941 59.9966 12.6739 60.045C12.6043 60.224 12.545 60.4068 12.4843 60.589C13.33 60.589 14.1758 60.589 15.0471 60.589C14.9003 60.1388 14.9003 60.1388 14.7311 59.7012C14.7101 59.6512 14.689 59.6013 14.6674 59.5498C14.6454 59.4982 14.6234 59.4467 14.6007 59.3935C14.5777 59.3389 14.5546 59.2844 14.5309 59.2281C14.4581 59.056 14.385 58.884 14.312 58.712C14.2622 58.5944 14.2124 58.4768 14.1627 58.3592C14.0416 58.0728 13.9201 57.7866 13.7986 57.5004C13.7769 57.5004 13.7552 57.5004 13.7329 57.5004Z" fill="white"/>
<path d="M33.9095 56.0547C35.8612 56.0547 37.8129 56.0547 39.8238 56.0547C39.9163 56.2399 39.8968 56.3946 39.8959 56.6015C39.8956 56.7253 39.8956 56.7253 39.8952 56.8517C39.8944 56.9817 39.8944 56.9817 39.8936 57.1143C39.8932 57.2024 39.8929 57.2904 39.8927 57.3785C39.8919 57.5944 39.8908 57.8102 39.8895 58.0261C39.781 58.0261 39.6726 58.0261 39.5609 58.0261C39.5512 57.9753 39.5416 57.9245 39.5316 57.8721C39.4054 57.2859 39.2136 56.857 38.7066 56.5147C38.4655 56.4343 38.2385 56.4338 37.9871 56.4282C37.9196 56.4263 37.9196 56.4263 37.8507 56.4245C37.6828 56.42 37.515 56.416 37.3471 56.412C36.784 56.3978 36.784 56.3978 36.2095 56.3833C36.2095 57.4242 36.2095 58.4651 36.2095 59.5375C37.0143 59.5292 37.0143 59.5292 37.7866 59.2747C37.9113 59.0837 37.951 58.8893 37.992 58.6668C38.003 58.6082 38.014 58.5496 38.0253 58.4892C38.0373 58.4226 38.0373 58.4226 38.0495 58.3547C38.1579 58.3547 38.2663 58.3547 38.378 58.3547C38.378 59.2655 38.378 60.1763 38.378 61.1147C38.2696 61.1147 38.1612 61.1147 38.0495 61.1147C38.036 61.0506 38.0225 60.9864 38.0086 60.9204C37.9909 60.8368 37.9732 60.7532 37.955 60.667C37.9375 60.5839 37.9199 60.5008 37.9019 60.4152C37.8566 60.1966 37.8566 60.1966 37.7866 59.9975C37.5991 59.9266 37.4096 59.92 37.2106 59.911C37.1521 59.9083 37.0937 59.9055 37.0335 59.9027C36.9427 59.8988 36.9427 59.8988 36.8502 59.8949C36.7887 59.892 36.7272 59.8892 36.6638 59.8863C36.5124 59.8793 36.3609 59.8726 36.2095 59.8661C36.2173 60.1898 36.2255 60.5135 36.2339 60.8372C36.2368 60.947 36.2395 61.0568 36.2421 61.1666C36.2494 62.2006 36.2494 62.2006 36.4066 63.2175C36.7536 63.2826 37.1005 63.3477 37.458 63.4147C37.458 63.5231 37.458 63.6315 37.458 63.7433C36.2653 63.7433 35.0726 63.7433 33.8438 63.7433C33.8438 63.6348 33.8438 63.5264 33.8438 63.4147C33.9328 63.4039 33.9328 63.4039 34.0237 63.3929C34.1012 63.3824 34.1787 63.372 34.2586 63.3613C34.3356 63.3514 34.4126 63.3415 34.4919 63.3313C34.7093 63.2806 34.7587 63.2522 34.8952 63.0861C35.0861 62.5082 35.0457 61.8952 35.0441 61.2933C35.0442 61.1763 35.0443 61.0592 35.0444 60.9421C35.0446 60.6975 35.0444 60.453 35.0437 60.2084C35.043 59.8962 35.0434 59.584 35.0442 59.2718C35.0447 59.0303 35.0445 58.7888 35.0442 58.5472C35.0441 58.4322 35.0442 58.3171 35.0445 58.2021C35.0587 57.3799 35.0587 57.3799 34.8952 56.5804C34.6715 56.4313 34.5557 56.425 34.2914 56.4079C34.22 56.403 34.1486 56.3981 34.075 56.393C34.0204 56.3898 33.9658 56.3866 33.9095 56.3833C33.9095 56.2748 33.9095 56.1664 33.9095 56.0547Z" fill="white"/>
<path d="M22.9329 56.0547C24.8846 56.0547 26.8363 56.0547 28.8472 56.0547C28.9398 56.2399 28.9203 56.3946 28.9193 56.6015C28.919 56.7253 28.919 56.7253 28.9187 56.8517C28.9179 56.9817 28.9179 56.9817 28.917 57.1143C28.9167 57.2024 28.9164 57.2904 28.9161 57.3785C28.9153 57.5944 28.9143 57.8102 28.9129 58.0261C28.8045 58.0261 28.696 58.0261 28.5843 58.0261C28.5747 57.9753 28.565 57.9245 28.5551 57.8721C28.4288 57.2859 28.2371 56.857 27.73 56.5147C27.4889 56.4343 27.2619 56.4338 27.0105 56.4282C26.943 56.4263 26.943 56.4263 26.8741 56.4245C26.7063 56.42 26.5384 56.416 26.3706 56.412C25.8074 56.3978 25.8074 56.3978 25.2329 56.3833C25.2329 57.4242 25.2329 58.4651 25.2329 59.5375C26.0377 59.5292 26.0377 59.5292 26.81 59.2747C26.9347 59.0837 26.9744 58.8893 27.0154 58.6668C27.0264 58.6082 27.0374 58.5496 27.0488 58.4892C27.0607 58.4226 27.0607 58.4226 27.0729 58.3547C27.1813 58.3547 27.2898 58.3547 27.4015 58.3547C27.4015 59.2655 27.4015 60.1763 27.4015 61.1147C27.293 61.1147 27.1846 61.1147 27.0729 61.1147C27.0594 61.0506 27.046 60.9864 27.0321 60.9204C27.0144 60.8368 26.9967 60.7532 26.9784 60.667C26.9609 60.5839 26.9434 60.5008 26.9253 60.4152C26.8801 60.1966 26.8801 60.1966 26.81 59.9975C26.6225 59.9266 26.4331 59.92 26.234 59.911C26.1756 59.9083 26.1171 59.9055 26.0569 59.9027C25.9662 59.8988 25.9662 59.8988 25.8736 59.8949C25.8121 59.892 25.7506 59.8892 25.6873 59.8863C25.5358 59.8793 25.3844 59.8726 25.2329 59.8661C25.2408 60.1898 25.2489 60.5135 25.2574 60.8372C25.2602 60.947 25.2629 61.0568 25.2656 61.1666C25.2729 62.2006 25.2729 62.2006 25.43 63.2175C25.777 63.2826 26.124 63.3477 26.4815 63.4147C26.4815 63.5231 26.4815 63.6315 26.4815 63.7433C25.2888 63.7433 24.096 63.7433 22.8672 63.7433C22.8672 63.6348 22.8672 63.5264 22.8672 63.4147C22.9563 63.4039 22.9563 63.4039 23.0471 63.3929C23.1246 63.3824 23.2022 63.372 23.282 63.3613C23.359 63.3514 23.436 63.3415 23.5153 63.3313C23.7328 63.2806 23.7821 63.2522 23.9186 63.0861C24.1095 62.5082 24.0691 61.8952 24.0675 61.2933C24.0676 61.1763 24.0677 61.0592 24.0679 60.9421C24.0681 60.6975 24.0678 60.453 24.0672 60.2084C24.0664 59.8962 24.0669 59.584 24.0676 59.2718C24.0681 59.0303 24.068 58.7888 24.0676 58.5472C24.0675 58.4322 24.0676 58.3171 24.068 58.2021C24.0821 57.3799 24.0821 57.3799 23.9186 56.5804C23.6949 56.4313 23.5792 56.425 23.3149 56.4079C23.2435 56.403 23.172 56.3981 23.0985 56.393C23.0438 56.3898 22.9892 56.3866 22.9329 56.3833C22.9329 56.2748 22.9329 56.1664 22.9329 56.0547Z" fill="white"/>
<path d="M70.5103 67.0312C72.1584 67.0312 73.8066 67.0312 75.5046 67.0312C75.6572 68.2517 75.6572 68.2517 75.636 68.8055C75.5276 68.7838 75.4192 68.7622 75.3075 68.7398C75.2847 68.6613 75.2847 68.6613 75.2615 68.5812C75.1189 68.1178 75.0025 67.7575 74.5928 67.4707C74.1509 67.3277 73.6683 67.3403 73.2087 67.3229C72.9688 67.3134 72.7289 67.3039 72.4818 67.2941C72.4818 68.2483 72.4818 69.2025 72.4818 70.1855C73.702 70.2036 73.702 70.2036 74.0589 69.7912C74.1042 69.6223 74.1042 69.6223 74.1082 69.4462C74.1138 69.3583 74.1138 69.3583 74.1195 69.2686C74.122 69.202 74.122 69.202 74.1246 69.1341C74.233 69.1341 74.3415 69.1341 74.4532 69.1341C74.4532 69.9365 74.4532 70.7388 74.4532 71.5655C74.3448 71.5655 74.2363 71.5655 74.1246 71.5655C74.1174 71.5054 74.1102 71.4452 74.1028 71.3833C74.0924 71.3052 74.082 71.2271 74.0712 71.1466C74.0613 71.0688 74.0514 70.9911 74.0412 70.911C74.0124 70.6918 74.0124 70.6918 73.796 70.5798C73.5201 70.5058 73.2382 70.4937 72.9541 70.4771C72.8858 70.4729 72.8858 70.4729 72.8161 70.4685C72.7047 70.4616 72.5932 70.455 72.4818 70.4484C72.4879 70.8355 72.4949 71.2225 72.5026 71.6095C72.5051 71.7412 72.5074 71.8728 72.5095 72.0044C72.5125 72.1938 72.5163 72.3832 72.5203 72.5726C72.521 72.6312 72.5218 72.6899 72.5226 72.7504C72.5312 73.1593 72.5312 73.1593 72.6789 73.537C72.9979 73.6989 73.3309 73.6913 73.681 73.6889C73.7642 73.6885 73.7642 73.6885 73.849 73.6881C74.3348 73.6793 74.7339 73.6105 75.1596 73.3686C75.5673 72.927 75.782 72.3934 75.9646 71.8284C76.073 71.8284 76.1815 71.8284 76.2932 71.8284C76.2839 72.0529 76.2742 72.2774 76.2644 72.502C76.2619 72.5643 76.2593 72.6267 76.2566 72.6909C76.2364 73.1503 76.2 73.6036 76.1618 74.0627C74.2534 74.0627 72.3451 74.0627 70.3789 74.0627C70.3789 73.9542 70.3789 73.8458 70.3789 73.7341C70.4288 73.7284 70.4787 73.7228 70.5301 73.7169C70.5954 73.7077 70.6607 73.6984 70.728 73.6889C70.7928 73.6805 70.8576 73.6722 70.9244 73.6635C71.1093 73.6177 71.1093 73.6177 71.21 73.4687C71.324 73.2193 71.3255 72.997 71.3223 72.7282C71.3225 72.6741 71.3226 72.62 71.3227 72.5643C71.3229 72.386 71.3217 72.2077 71.3205 72.0294C71.3203 71.9053 71.3201 71.7811 71.3201 71.657C71.3198 71.3971 71.3188 71.1372 71.3174 70.8773C71.3155 70.5441 71.3148 70.211 71.3145 69.8778C71.3142 69.6216 71.3136 69.3654 71.3128 69.1092C71.3124 68.9863 71.3121 68.8634 71.3119 68.7406C71.3114 68.569 71.3105 68.3974 71.3095 68.2258C71.3094 68.175 71.3093 68.1242 71.3093 68.0719C71.3074 67.8408 71.2897 67.6516 71.2332 67.4255C70.9946 67.3822 70.7561 67.3388 70.5103 67.2941C70.5103 67.2074 70.5103 67.1206 70.5103 67.0312Z" fill="white"/>
<path d="M69.4599 56.0547C71.9104 56.0547 74.3609 56.0547 76.8856 56.0547C76.9073 56.6619 76.929 57.2691 76.9513 57.8947C76.8429 57.8947 76.7345 57.8947 76.6228 57.8947C76.6 57.8184 76.6 57.8184 76.5768 57.7407C76.39 57.1158 76.39 57.1158 76.0313 56.5804C75.7649 56.4479 75.5349 56.4293 75.2394 56.4218C75.1961 56.4205 75.1528 56.4192 75.1082 56.4179C74.971 56.414 74.8338 56.4109 74.6965 56.4079C74.603 56.4054 74.5095 56.4028 74.4161 56.4002C74.1878 56.3939 73.9596 56.3884 73.7313 56.3833C73.7369 57.1882 73.7431 57.993 73.7502 58.7979C73.7535 59.1717 73.7565 59.5454 73.759 59.9192C73.7615 60.2801 73.7645 60.641 73.768 61.0019C73.7692 61.1394 73.7702 61.2769 73.771 61.4144C73.7721 61.6074 73.774 61.8004 73.7761 61.9934C73.7762 62.0498 73.7764 62.1063 73.7765 62.1645C73.7813 62.5136 73.8182 62.8192 73.9285 63.1518C74.1611 63.3069 74.3222 63.3218 74.5979 63.3572C74.6815 63.3682 74.7651 63.3792 74.8513 63.3906C74.9475 63.4025 74.9475 63.4025 75.0456 63.4147C75.0456 63.5231 75.0456 63.6315 75.0456 63.7433C73.7878 63.7433 72.5301 63.7433 71.2342 63.7433C71.2342 63.6348 71.2342 63.5264 71.2342 63.4147C71.3292 63.4039 71.3292 63.4039 71.4262 63.3929C71.5092 63.3824 71.5922 63.372 71.6778 63.3613C71.7601 63.3514 71.8424 63.3415 71.9273 63.3313C72.1506 63.284 72.2577 63.2459 72.417 63.0861C72.4765 62.9077 72.4915 62.8018 72.4931 62.6183C72.4938 62.5633 72.4944 62.5083 72.4951 62.4516C72.4955 62.3915 72.4959 62.3313 72.4962 62.2694C72.4969 62.2059 72.4975 62.1424 72.4982 62.077C72.5003 61.8669 72.5019 61.6567 72.5035 61.4466C72.5049 61.301 72.5063 61.1554 72.5077 61.0099C72.5113 60.6265 72.5146 60.243 72.5177 59.8596C72.521 59.4685 72.5247 59.0774 72.5283 58.6862C72.5354 57.9186 72.5421 57.1509 72.5485 56.3833C72.2737 56.3878 71.999 56.3936 71.7242 56.4005C71.6309 56.4027 71.5375 56.4045 71.4441 56.406C71.3095 56.4082 71.175 56.4117 71.0404 56.4153C70.9191 56.4179 70.9191 56.4179 70.7953 56.4206C70.485 56.461 70.3161 56.5683 70.1129 56.8022C69.908 57.1301 69.8257 57.5257 69.7228 57.8947C69.6143 57.8947 69.5059 57.8947 69.3942 57.8947C69.3923 57.6127 69.3911 57.3306 69.3901 57.0486C69.3895 56.9682 69.389 56.8878 69.3884 56.805C69.3882 56.7283 69.388 56.6517 69.3878 56.5727C69.3874 56.5018 69.3871 56.4309 69.3867 56.3579C69.3942 56.1861 69.3942 56.1861 69.4599 56.0547Z" fill="white"/>
<path d="M15.7596 67.2741C15.9219 67.3849 16.0778 67.5002 16.2326 67.6211C16.3194 67.6862 16.4061 67.7512 16.4955 67.8182C16.5606 67.558 16.6256 67.2978 16.6926 67.0297C16.7794 67.0297 16.8661 67.0297 16.9555 67.0297C17.0286 67.3223 17.0297 67.6083 17.0276 67.9078C17.0275 67.9599 17.0274 68.0119 17.0273 68.0655C17.027 68.2309 17.0262 68.3963 17.0253 68.5616C17.025 68.6741 17.0247 68.7866 17.0244 68.8991C17.0237 69.174 17.0226 69.449 17.0212 69.724C16.9345 69.724 16.8477 69.724 16.7584 69.724C16.74 69.6517 16.7216 69.5794 16.7027 69.505C16.5127 68.791 16.3116 68.1046 15.6823 67.654C15.5826 67.5962 15.4813 67.5413 15.3784 67.4897C15.3347 67.4675 15.2911 67.4453 15.2462 67.4224C14.7159 67.2022 14.0508 67.193 13.5063 67.3649C12.8402 67.6751 12.4905 68.1289 12.2241 68.804C11.8625 69.9441 11.8114 71.3435 12.3285 72.4457C12.6394 73.0148 13.0347 73.4473 13.6616 73.6586C14.3621 73.8367 15.0045 73.7169 15.6525 73.3999C16.3504 72.9552 16.5326 72.109 16.7584 71.3668C16.8451 71.3668 16.9318 71.3668 17.0212 71.3668C17.0212 72.1909 17.0212 73.0149 17.0212 73.864C16.9345 73.864 16.8477 73.864 16.7584 73.864C16.6499 73.6471 16.5415 73.4302 16.4298 73.2068C16.3471 73.2868 16.2644 73.3668 16.1792 73.4491C15.386 74.157 14.5298 74.1714 13.5198 74.1386C13.1654 74.1152 12.868 74.0226 12.5526 73.864C12.4959 73.8361 12.4391 73.8082 12.3807 73.7795C11.5922 73.3493 11.0615 72.6834 10.8033 71.8224C10.5058 70.6248 10.6901 69.3355 11.3066 68.2741C12.2276 66.8945 14.3272 66.3951 15.7596 67.2741Z" fill="white"/>
<path d="M37.9171 66.8984C38.0256 66.8984 38.134 66.8984 38.2457 66.8984C38.2902 67.0046 38.2902 67.0046 38.3355 67.113C38.3554 67.1605 38.3753 67.2081 38.3959 67.2571C38.4415 67.3661 38.4871 67.4751 38.5327 67.5841C38.6629 67.8951 38.7931 68.206 38.9233 68.5168C39.1744 69.1161 39.4252 69.7154 39.6742 70.3156C39.7792 70.5685 39.8844 70.8213 39.9896 71.0741C40.0394 71.194 40.089 71.3139 40.1386 71.4338C40.3671 71.9868 40.5971 72.5391 40.8553 73.0789C40.8893 73.1504 40.9233 73.222 40.9583 73.2957C41.1329 73.5646 41.3561 73.6646 41.6629 73.7327C41.6629 73.8412 41.6629 73.9496 41.6629 74.0613C40.7521 74.0613 39.8413 74.0613 38.9029 74.0613C38.9029 73.9529 38.9029 73.8444 38.9029 73.7327C39.1414 73.6894 39.3799 73.646 39.6257 73.6013C39.7035 73.2901 39.6577 73.202 39.5397 72.9103C39.5102 72.8362 39.4807 72.7622 39.4503 72.6859C39.4119 72.5922 39.3736 72.4985 39.3341 72.402C39.2135 72.1038 39.0929 71.8057 38.9686 71.4984C37.7 71.4659 37.7 71.4659 36.4057 71.4327C36.3407 71.6496 36.2756 71.8664 36.2086 72.0899C36.1634 72.2163 36.1172 72.3424 36.0689 72.4677C35.8892 72.918 35.8892 72.918 35.9416 73.3836C36.1357 73.6013 36.3259 73.6465 36.6029 73.7327C36.6029 73.8412 36.6029 73.9496 36.6029 74.0613C35.9089 74.0613 35.215 74.0613 34.5 74.0613C34.5 73.9529 34.5 73.8444 34.5 73.7327C34.5524 73.71 34.5524 73.71 34.6058 73.6868C34.6522 73.6653 34.6986 73.6439 34.7464 73.6218C34.7922 73.6012 34.8379 73.5807 34.885 73.5595C35.2494 73.3274 35.3966 72.9363 35.5625 72.5558C35.5879 72.4982 35.6134 72.4406 35.6397 72.3813C35.9349 71.7097 36.2138 71.0314 36.492 70.3525C36.5464 70.2201 36.6009 70.0876 36.6554 69.9551C36.7631 69.6934 36.8707 69.4317 36.9782 69.1699C37.1679 68.7082 37.3587 68.2469 37.5498 67.7857C37.6294 67.5935 37.709 67.4013 37.7885 67.209C37.8314 67.1055 37.8743 67.002 37.9171 66.8984ZM37.6543 68.3442C37.5162 68.6831 37.3782 69.0222 37.2404 69.3613C37.1935 69.4766 37.1466 69.5918 37.0996 69.707C37.032 69.873 36.9645 70.0391 36.897 70.2052C36.8761 70.2564 36.8553 70.3075 36.8337 70.3602C36.814 70.4088 36.7943 70.4575 36.774 70.5076C36.7568 70.5499 36.7395 70.5923 36.7218 70.6359C36.6547 70.8119 36.5967 70.9912 36.5371 71.1699C37.2961 71.1699 38.0551 71.1699 38.8371 71.1699C38.7124 70.754 38.5905 70.3683 38.4195 69.9742C38.3893 69.9034 38.3893 69.9034 38.3585 69.8311C38.2952 69.6831 38.2314 69.5352 38.1677 69.3874C38.1242 69.2859 38.0808 69.1844 38.0374 69.0829C37.932 68.8365 37.8261 68.5903 37.72 68.3442C37.6983 68.3442 37.6766 68.3442 37.6543 68.3442Z" fill="white"/>
<path d="M42.5829 17.2812C42.6263 17.3029 42.6696 17.3246 42.7143 17.347C42.0854 17.9758 41.4565 18.6047 40.8086 19.2527C40.8086 18.9692 40.9796 18.8471 41.1659 18.653C41.2017 18.6151 41.2375 18.5771 41.2744 18.538C41.3814 18.4252 41.4891 18.3131 41.5972 18.2012C41.6533 18.1431 41.7095 18.085 41.7674 18.0252C42.0277 17.7608 42.2924 17.5121 42.5829 17.2812Z" fill="white"/>
<path d="M59.9324 67.3594C59.9758 67.3811 60.0192 67.4027 60.0638 67.4251C59.7386 67.7504 59.4133 68.0757 59.0781 68.4108C59.0781 68.1438 59.1787 68.0788 59.3574 67.8851C59.4093 67.8282 59.4611 67.7712 59.5145 67.7126C59.6475 67.5787 59.778 67.467 59.9324 67.3594Z" fill="white"/>
<path d="M58.3557 56.5156C58.399 56.5373 58.4424 56.559 58.4871 56.5813C58.2052 56.8633 57.9233 57.1452 57.6328 57.4356C57.6328 57.1926 57.6873 57.1521 57.8464 56.9756C57.886 56.9309 57.9257 56.8862 57.9665 56.8401C58.0887 56.7169 58.2142 56.6157 58.3557 56.5156Z" fill="white"/>
</svg>
