<svg width="30" height="30" viewBox="0 0 30 30" fill="none" xmlns="http://www.w3.org/2000/svg">
<rect width="30" height="30" rx="15" fill="#0F1115"/>
<path d="M19.2052 14.1338C19.0618 11.6051 17.6165 10.1575 15.19 10.1431C13.727 10.1346 12.504 10.7272 11.7547 11.8133L13.0902 12.6878C13.6517 11.8743 14.5382 11.7058 15.1802 11.7117C15.9799 11.7168 16.5821 11.9386 16.9727 12.3721C17.256 12.687 17.4464 13.123 17.5412 13.6724C16.8327 13.5572 16.0658 13.5217 15.2475 13.5666C12.9397 13.6935 11.4572 14.9803 11.5564 16.7674C11.6069 17.6741 12.0789 18.4546 12.8865 18.9642C13.5684 19.3951 14.4487 19.6051 15.3618 19.5577C16.5688 19.4942 17.5155 19.054 18.1762 18.2497C18.6774 17.6385 18.9945 16.8461 19.1344 15.8489C19.71 16.1807 20.1351 16.6167 20.3716 17.1416C20.7718 18.0339 20.7949 19.5001 19.5435 20.6954C18.4472 21.7418 17.1294 22.1956 15.1377 22.2091C12.9282 22.1939 11.257 21.5158 10.1713 20.196C9.15288 18.96 8.62772 17.1738 8.60824 14.8889C8.62772 12.6032 9.15376 10.8178 10.1713 9.58095C11.257 8.26116 12.9282 7.58392 15.1377 7.56868C17.3632 7.58476 19.0627 8.26455 20.1909 9.59196C20.7444 10.2421 21.1606 11.0599 21.436 12.0131L23 11.6152C22.6661 10.4411 22.1419 9.42942 21.429 8.59048C19.9828 6.88889 17.8574 6.01778 15.1324 6C12.4127 6.01778 10.321 6.89312 8.91642 8.59979C7.66685 10.1194 7.02125 12.2451 7 14.8948C7.02125 17.5445 7.66685 19.6584 8.91642 21.178C10.3219 22.8847 12.4234 23.76 15.1421 23.7778C17.5607 23.7617 19.2646 23.1564 20.6682 21.8163C22.5058 20.0614 22.45 17.8629 21.8452 16.5134C21.3803 15.4764 20.4548 14.6459 19.2061 14.1346L19.2052 14.1338ZM15.275 17.9915C14.2636 18.0457 13.2133 17.6123 13.1611 16.6828C13.123 15.9937 13.6747 15.225 15.337 15.1335C16.0882 15.0853 16.8429 15.1349 17.5802 15.2808C17.3889 17.5683 16.2651 17.939 15.275 17.9915Z" fill="white"/>
</svg>
