<svg width="30" height="30" viewBox="0 0 30 30" fill="none" xmlns="http://www.w3.org/2000/svg">
<rect width="30" height="30" rx="15" fill="#0F1115"/>
<g clip-path="url(#clip0_784_978)">
<path fill-rule="evenodd" clip-rule="evenodd" d="M11.7018 7.048C12.5549 7.00873 12.8269 7 15 7C17.1731 7 17.4451 7.00945 18.2975 7.048C19.1498 7.08655 19.7316 7.22255 20.2407 7.41964C20.7738 7.62109 21.2575 7.936 21.6575 8.34327C22.0647 8.74255 22.3789 9.22545 22.5796 9.75927C22.7775 10.2684 22.9127 10.8502 22.952 11.7011C22.9913 12.5556 23 12.8276 23 15C23 17.1731 22.9905 17.4451 22.952 18.2982C22.9135 19.1491 22.7775 19.7309 22.5796 20.24C22.3789 20.7739 22.0642 21.2576 21.6575 21.6575C21.2575 22.0647 20.7738 22.3789 20.2407 22.5796C19.7316 22.7775 19.1498 22.9127 18.2989 22.952C17.4451 22.9913 17.1731 23 15 23C12.8269 23 12.5549 22.9905 11.7018 22.952C10.8509 22.9135 10.2691 22.7775 9.76 22.5796C9.22612 22.3789 8.74241 22.0642 8.34255 21.6575C7.93555 21.2579 7.62059 20.7745 7.41964 20.2407C7.22255 19.7316 7.08727 19.1498 7.048 18.2989C7.00873 17.4444 7 17.1724 7 15C7 12.8269 7.00945 12.5549 7.048 11.7025C7.08655 10.8502 7.22255 10.2684 7.41964 9.75927C7.62089 9.22551 7.93609 8.74205 8.34327 8.34255C8.74257 7.93564 9.2258 7.62069 9.75927 7.41964C10.2684 7.22255 10.8502 7.08727 11.7011 7.048H11.7018ZM18.2327 8.488C17.3891 8.44945 17.136 8.44145 15 8.44145C12.864 8.44145 12.6109 8.44945 11.7673 8.488C10.9869 8.52364 10.5636 8.65382 10.2815 8.76364C9.90836 8.90909 9.64145 9.08145 9.36145 9.36145C9.09603 9.61967 8.89177 9.93402 8.76364 10.2815C8.65382 10.5636 8.52364 10.9869 8.488 11.7673C8.44945 12.6109 8.44145 12.864 8.44145 15C8.44145 17.136 8.44945 17.3891 8.488 18.2327C8.52364 19.0131 8.65382 19.4364 8.76364 19.7185C8.89164 20.0655 9.096 20.3804 9.36145 20.6385C9.61964 20.904 9.93455 21.1084 10.2815 21.2364C10.5636 21.3462 10.9869 21.4764 11.7673 21.512C12.6109 21.5505 12.8633 21.5585 15 21.5585C17.1367 21.5585 17.3891 21.5505 18.2327 21.512C19.0131 21.4764 19.4364 21.3462 19.7185 21.2364C20.0916 21.0909 20.3585 20.9185 20.6385 20.6385C20.904 20.3804 21.1084 20.0655 21.2364 19.7185C21.3462 19.4364 21.4764 19.0131 21.512 18.2327C21.5505 17.3891 21.5585 17.136 21.5585 15C21.5585 12.864 21.5505 12.6109 21.512 11.7673C21.4764 10.9869 21.3462 10.5636 21.2364 10.2815C21.0909 9.90836 20.9185 9.64145 20.6385 9.36145C20.3803 9.09605 20.066 8.89179 19.7185 8.76364C19.4364 8.65382 19.0131 8.52364 18.2327 8.488ZM13.9782 17.4662C14.5488 17.7037 15.1843 17.7358 15.7759 17.5569C16.3676 17.378 16.8788 16.9992 17.2223 16.4853C17.5657 15.9713 17.72 15.3541 17.6589 14.739C17.5978 14.1239 17.3251 13.5491 16.8873 13.1127C16.6082 12.8338 16.2707 12.6202 15.8992 12.4874C15.5276 12.3545 15.1312 12.3057 14.7385 12.3444C14.3459 12.3832 13.9667 12.5085 13.6282 12.7114C13.2898 12.9142 13.0005 13.1896 12.7813 13.5177C12.5621 13.8458 12.4183 14.2184 12.3604 14.6087C12.3024 14.999 12.3317 15.3973 12.4462 15.7749C12.5607 16.1525 12.7574 16.5001 13.0223 16.7925C13.2872 17.085 13.6137 17.315 13.9782 17.4662ZM12.0924 12.0924C12.4742 11.7105 12.9275 11.4076 13.4264 11.201C13.9253 10.9943 14.46 10.888 15 10.888C15.54 10.888 16.0747 10.9943 16.5736 11.201C17.0725 11.4076 17.5258 11.7105 17.9076 12.0924C18.2895 12.4742 18.5924 12.9275 18.799 13.4264C19.0057 13.9253 19.112 14.46 19.112 15C19.112 15.54 19.0057 16.0747 18.799 16.5736C18.5924 17.0725 18.2895 17.5258 17.9076 17.9076C17.1365 18.6788 16.0906 19.112 15 19.112C13.9094 19.112 12.8635 18.6788 12.0924 17.9076C11.3212 17.1365 10.888 16.0906 10.888 15C10.888 13.9094 11.3212 12.8635 12.0924 12.0924ZM20.024 11.5004C20.1186 11.4111 20.1944 11.3038 20.2468 11.1847C20.2992 11.0656 20.3271 10.9373 20.329 10.8072C20.3309 10.6772 20.3067 10.548 20.2578 10.4275C20.2089 10.307 20.1363 10.1975 20.0443 10.1055C19.9524 10.0135 19.8429 9.94091 19.7223 9.89201C19.6018 9.84311 19.4727 9.81889 19.3426 9.82079C19.2125 9.82268 19.0842 9.85066 18.9651 9.90305C18.846 9.95545 18.7387 10.0312 18.6495 10.1258C18.4759 10.3098 18.3808 10.5543 18.3845 10.8072C18.3882 11.0602 18.4903 11.3017 18.6692 11.4806C18.8481 11.6595 19.0896 11.7616 19.3426 11.7653C19.5955 11.769 19.84 11.674 20.024 11.5004Z" fill="white"/>
</g>
<defs>
<clipPath id="clip0_784_978">
<rect width="16" height="16" fill="white" transform="translate(7 7)"/>
</clipPath>
</defs>
</svg>
