<svg width="44" height="44" viewBox="0 0 44 44" fill="none" xmlns="http://www.w3.org/2000/svg">
<rect x="0.357422" y="0.356934" width="43.3929" height="43.3929" rx="21.6964" fill="#947BFF"/>
<g clip-path="url(#clip0_6_30359)">
<path fill-rule="evenodd" clip-rule="evenodd" d="M16.5645 10.5514C17.7985 10.4946 18.1919 10.4819 21.3351 10.4819C24.4783 10.4819 24.8717 10.4956 26.1046 10.5514C27.3375 10.6071 28.1791 10.8038 28.9154 11.0889C29.6865 11.3803 30.3861 11.8358 30.9646 12.4249C31.5537 13.0024 32.0082 13.7009 32.2985 14.473C32.5846 15.2094 32.7803 16.0509 32.8371 17.2817C32.8939 18.5178 32.9065 18.9112 32.9065 22.0534C32.9065 25.1966 32.8929 25.59 32.8371 26.8239C32.7813 28.0547 32.5846 28.8963 32.2985 29.6326C32.0082 30.4049 31.553 31.1045 30.9646 31.6829C30.3861 32.272 29.6865 32.7264 28.9154 33.0168C28.1791 33.3029 27.3375 33.4986 26.1067 33.5554C24.8717 33.6122 24.4783 33.6248 21.3351 33.6248C18.1919 33.6248 17.7985 33.6111 16.5645 33.5554C15.3337 33.4996 14.4922 33.3029 13.7558 33.0168C12.9836 32.7264 12.284 32.2712 11.7056 31.6829C11.1169 31.105 10.6613 30.4057 10.3706 29.6337C10.0856 28.8973 9.88991 28.0558 9.8331 26.825C9.7763 25.589 9.76367 25.1955 9.76367 22.0534C9.76367 18.9101 9.77735 18.5167 9.8331 17.2838C9.88885 16.0509 10.0856 15.2094 10.3706 14.473C10.6617 13.701 11.1177 13.0017 11.7066 12.4238C12.2842 11.8353 12.9831 11.3797 13.7548 11.0889C14.4911 10.8038 15.3327 10.6082 16.5635 10.5514H16.5645ZM26.011 12.6342C24.7907 12.5785 24.4247 12.5669 21.3351 12.5669C18.2455 12.5669 17.8795 12.5785 16.6592 12.6342C15.5305 12.6858 14.9182 12.8741 14.5101 13.0329C13.9704 13.2433 13.5843 13.4926 13.1793 13.8976C12.7954 14.2711 12.5 14.7258 12.3146 15.2283C12.1558 15.6365 11.9675 16.2487 11.916 17.3775C11.8602 18.5977 11.8486 18.9638 11.8486 22.0534C11.8486 25.1429 11.8602 25.509 11.916 26.7293C11.9675 27.858 12.1558 28.4702 12.3146 28.8784C12.4998 29.3802 12.7954 29.8357 13.1793 30.2091C13.5528 30.5931 14.0083 30.8887 14.5101 31.0738C14.9182 31.2327 15.5305 31.421 16.6592 31.4725C17.8795 31.5283 18.2445 31.5398 21.3351 31.5398C24.4257 31.5398 24.7907 31.5283 26.011 31.4725C27.1397 31.421 27.752 31.2327 28.1601 31.0738C28.6998 30.8634 29.0859 30.6141 29.4909 30.2091C29.8748 29.8357 30.1704 29.3802 30.3556 28.8784C30.5144 28.4702 30.7027 27.858 30.7542 26.7293C30.81 25.509 30.8216 25.1429 30.8216 22.0534C30.8216 18.9638 30.81 18.5977 30.7542 17.3775C30.7027 16.2487 30.5144 15.6365 30.3556 15.2283C30.1452 14.6887 29.8959 14.3026 29.4909 13.8976C29.1173 13.5137 28.6627 13.2183 28.1601 13.0329C27.752 12.8741 27.1397 12.6858 26.011 12.6342ZM19.8571 25.6205C20.6825 25.9641 21.6016 26.0105 22.4575 25.7517C23.3133 25.4929 24.0527 24.9451 24.5494 24.2017C25.0462 23.4583 25.2694 22.5655 25.1811 21.6758C25.0927 20.7861 24.6982 19.9547 24.0649 19.3236C23.6612 18.9201 23.1731 18.6112 22.6357 18.419C22.0982 18.2269 21.5249 18.1563 20.9569 18.2123C20.3889 18.2683 19.8404 18.4496 19.3509 18.743C18.8614 19.0365 18.443 19.4348 18.1259 19.9093C17.8088 20.3839 17.6009 20.9228 17.5171 21.4874C17.4333 22.0519 17.4757 22.628 17.6412 23.1742C17.8068 23.7204 18.0914 24.2231 18.4746 24.6461C18.8577 25.0691 19.3299 25.4019 19.8571 25.6205ZM17.1294 17.8477C17.6817 17.2954 18.3374 16.8573 19.059 16.5584C19.7806 16.2595 20.554 16.1056 21.3351 16.1056C22.1162 16.1056 22.8896 16.2595 23.6112 16.5584C24.3328 16.8573 24.9885 17.2954 25.5408 17.8477C26.0931 18.4 26.5312 19.0556 26.8301 19.7773C27.129 20.4989 27.2828 21.2723 27.2828 22.0534C27.2828 22.8344 27.129 23.6079 26.8301 24.3295C26.5312 25.0511 26.0931 25.7068 25.5408 26.2591C24.4254 27.3745 22.9125 28.0011 21.3351 28.0011C19.7577 28.0011 18.2448 27.3745 17.1294 26.2591C16.014 25.1436 15.3874 23.6308 15.3874 22.0534C15.3874 20.4759 16.014 18.9631 17.1294 17.8477ZM28.602 16.9914C28.7388 16.8623 28.8484 16.707 28.9242 16.5348C29 16.3626 29.0404 16.1769 29.0432 15.9888C29.0459 15.8007 29.0109 15.6139 28.9401 15.4396C28.8694 15.2652 28.7644 15.1068 28.6314 14.9738C28.4983 14.8408 28.3399 14.7358 28.1656 14.665C27.9913 14.5943 27.8045 14.5593 27.6164 14.562C27.4282 14.5647 27.2426 14.6052 27.0704 14.681C26.8981 14.7568 26.7429 14.8663 26.6138 15.0032C26.3627 15.2694 26.2252 15.6229 26.2306 15.9888C26.2359 16.3547 26.3836 16.7041 26.6423 16.9628C26.9011 17.2216 27.2505 17.3693 27.6164 17.3746C27.9822 17.3799 28.3358 17.2425 28.602 16.9914Z" fill="white"/>
</g>
<defs>
<clipPath id="clip0_6_30359">
<rect width="23.1429" height="23.1429" fill="white" transform="translate(9.76367 10.4819)"/>
</clipPath>
</defs>
</svg>
