<svg width="44" height="44" viewBox="0 0 44 44" fill="none" xmlns="http://www.w3.org/2000/svg">
<rect x="0.25" y="0.356934" width="43.3929" height="43.3929" rx="21.6964" fill="#947BFF"/>
<path d="M28.7478 20.8015C28.5402 17.144 26.4497 15.0501 22.9399 15.0293C20.8238 15.017 19.0548 15.8742 17.9712 17.4452L19.9028 18.7101C20.7149 17.5334 21.9972 17.2897 22.9259 17.2983C24.0825 17.3056 24.9536 17.6264 25.5185 18.2534C25.9284 18.7089 26.2038 19.3395 26.3409 20.1342C25.3161 19.9676 24.2068 19.9162 23.0232 19.9811C19.6851 20.1648 17.5408 22.026 17.6842 24.6109C17.7572 25.9223 18.44 27.0513 19.6082 27.7885C20.5945 28.4117 21.8678 28.7154 23.1884 28.6468C24.9344 28.555 26.3037 27.9183 27.2593 26.755C27.9843 25.8709 28.4429 24.7248 28.6453 23.2823C29.4779 23.7623 30.0927 24.3929 30.4348 25.1521C31.0137 26.4427 31.0471 28.5636 29.2371 30.2925C27.6513 31.806 25.7452 32.4623 22.8644 32.4819C19.6684 32.4599 17.2513 31.4791 15.6808 29.5701C14.2077 27.7823 13.4481 25.1987 13.4199 21.8938C13.4481 18.5876 14.209 16.0052 15.6808 14.2162C17.2513 12.3072 19.6684 11.3276 22.8644 11.3056C26.0834 11.3289 28.5415 12.3121 30.1734 14.2321C30.974 15.1725 31.5761 16.3554 31.9745 17.7342L34.2366 17.1587C33.7537 15.4603 32.9954 13.997 31.9642 12.7836C29.8724 10.3223 26.7982 9.06234 22.8567 9.03662C18.9229 9.06234 15.8973 10.3285 13.8657 12.797C12.0583 14.995 11.1245 18.0697 11.0938 21.9023C11.1245 25.735 12.0583 28.7925 13.8657 30.9905C15.8986 33.4591 18.9383 34.7252 22.8708 34.7509C26.369 34.7276 28.8336 33.8521 30.8639 31.9138C33.5218 29.3754 33.4411 26.1954 32.5663 24.2436C31.8938 22.7436 30.5552 21.5423 28.749 20.8027L28.7478 20.8015ZM23.0629 26.3815C21.6001 26.4599 20.0809 25.8329 20.0053 24.4885C19.9502 23.4917 20.7482 22.3799 23.1526 22.2476C24.2392 22.1779 25.3308 22.2496 26.3972 22.4607C26.1205 25.7693 24.495 26.3056 23.0629 26.3815Z" fill="white"/>
</svg>
