<svg width="96" height="125" viewBox="0 0 96 125" fill="none" xmlns="http://www.w3.org/2000/svg">
<path d="M41.7352 0.0293261C41.9795 0.0278391 42.2237 0.0263521 42.4754 0.0248201C42.991 0.0223688 43.5067 0.0206559 44.0223 0.0196453C44.7916 0.0171398 45.5607 0.00904429 46.33 0.000793344C60.166 -0.0766465 73.4013 5.51938 83.4786 14.9519C84.005 15.5087 84.5031 16.07 84.9827 16.667C85.295 17.0757 85.295 17.0757 85.8264 17.2998C85.9233 16.9985 86.0201 16.6972 86.1199 16.3867C86.4336 15.4339 86.7865 14.5037 87.1579 13.5719C88.5985 9.90978 89.4302 6.05647 90.0004 2.16928C91.3777 2.16928 92.7551 2.16928 94.1743 2.16928C94.4101 6.2737 94.5259 10.3779 94.6196 14.4877C94.6362 15.2103 94.6532 15.9328 94.6702 16.6553C94.7105 18.3654 94.7501 20.0754 94.7892 21.7855C94.8291 23.5282 94.87 25.2708 94.9115 27.0134C94.9475 28.5287 94.9829 30.0441 95.0178 31.5594C95.0385 32.456 95.0593 33.3525 95.0808 34.2491C95.1883 38.7742 95.2391 43.2952 95.2178 47.8216C93.9265 47.8216 92.6351 47.8216 91.3047 47.8216C90.9704 46.8188 90.7018 45.9694 90.5109 44.9541C90.4632 44.7088 90.4154 44.4635 90.3663 44.2107C90.3154 43.9496 90.2647 43.6885 90.2123 43.4194C88.3581 34.2421 85.2309 25.253 79.0438 18.0824C78.7371 17.6789 78.7371 17.6789 78.4242 17.2672C73.0147 11.3424 64.8379 7.54682 57.1307 5.82147C56.9402 5.77876 56.7498 5.73605 56.5536 5.69205C50.97 4.51039 44.4123 4.42587 38.8697 5.82147C38.6686 5.86914 38.4674 5.9168 38.2602 5.96591C28.9901 8.21737 21.3407 14.5032 16.3757 22.5457C13.0624 28.1062 10.7562 34.171 9.45427 40.5138C9.36128 40.9532 9.24788 41.3881 9.13047 41.8216C8.9583 41.9077 8.78612 41.9938 8.60873 42.0825C6.75615 37.821 4.95216 33.5399 3.17335 29.2472C2.94967 28.7076 2.72565 28.1681 2.50129 27.6288C2.18211 26.8612 1.86431 26.093 1.54688 25.3246C1.40318 24.9797 1.40318 24.9797 1.25657 24.6279C0.758703 23.4179 0.284222 22.2313 0 20.952C0.323031 20.2947 0.323031 20.2947 0.864134 19.6965C1.06018 19.4742 1.25623 19.252 1.45823 19.0229C1.66571 18.7986 1.87319 18.5744 2.08696 18.3433C2.27562 18.127 2.46427 17.9108 2.65864 17.688C3.23969 17.0259 3.83403 16.3788 4.4348 15.7346C4.62379 15.5284 4.81278 15.3223 5.00749 15.1099C7.85518 12.1222 11.2859 9.67441 14.8696 7.64756C15.0279 7.5563 15.1862 7.46505 15.3493 7.37102C23.238 2.85324 32.6155 0.0737734 41.7352 0.0293261Z" fill="#F8F8F8"/>
<path d="M91.3112 76.7891C92.6025 76.7891 93.8938 76.7891 95.2242 76.7891C95.2242 90.7352 95.2242 104.681 95.2242 119.05C93.9329 119.05 92.6416 119.05 91.3112 119.05C90.9358 118.082 90.5764 117.123 90.2779 116.128C89.3021 112.93 87.8924 109.706 85.8329 107.05C85.0613 107.396 84.5397 107.765 83.9599 108.378C83.8055 108.538 83.651 108.698 83.4919 108.863C83.3282 109.034 83.1645 109.205 82.9959 109.382C81.1922 111.225 79.2987 112.827 77.2242 114.354C77.0089 114.516 76.7937 114.678 76.572 114.845C75.9315 115.311 75.2801 115.749 74.6155 116.181C74.4696 116.276 74.3238 116.371 74.1736 116.468C64.6922 122.562 53.8755 124.368 42.7892 124.268C42.3956 123.372 42.0052 122.475 41.6153 121.577C41.5033 121.323 41.3914 121.068 41.276 120.805C41.1701 120.561 41.0641 120.316 40.955 120.064C40.8566 119.839 40.7583 119.613 40.6569 119.381C40.4414 118.789 40.4414 118.789 40.4414 118.007C40.6939 118.043 40.9464 118.08 41.2066 118.117C43.7511 118.47 46.2524 118.633 48.8219 118.626C49.0075 118.626 49.1931 118.626 49.3844 118.626C52.6648 118.616 55.7779 118.288 58.9632 117.485C59.2508 117.416 59.2508 117.416 59.5442 117.345C65.4719 115.893 71.3297 113.179 75.9198 109.137C76.2017 108.913 76.4842 108.69 76.7676 108.469C80.0766 105.536 82.5187 101.555 84.5285 97.6587C84.6727 97.3806 84.6727 97.3806 84.8197 97.0968C87.9256 91.0238 90.1597 84.4708 90.9566 77.6817C91.0503 77.0499 91.0503 77.0499 91.3112 76.7891Z" fill="#F6F6F6"/>
</svg>
