<svg width="176" height="49" viewBox="0 0 176 49" fill="none" xmlns="http://www.w3.org/2000/svg">
<g clip-path="url(#clip0_5_22865)">
<path d="M31.3867 29.4258C34.1905 29.4258 36.9943 29.4258 39.8831 29.4258C39.8831 29.6547 39.8831 29.8835 39.8831 30.1194C39.082 30.2338 38.2809 30.3482 37.4556 30.4662C37.2981 31.2533 37.2448 31.9864 37.2273 32.7833C37.2241 32.9051 37.2208 33.027 37.2175 33.1525C37.2057 33.6045 37.1953 34.0564 37.1846 34.5084C37.1596 35.5205 37.1346 36.5326 37.1088 37.5754C40.1987 37.5754 43.2886 37.5754 46.4721 37.5754C46.4507 36.7206 46.4292 35.8659 46.4071 34.9853C46.4012 34.7189 46.3953 34.4524 46.3892 34.1779C46.3543 32.9639 46.3072 31.8098 45.9519 30.6396C45.288 30.1567 44.3302 30.1861 43.5244 30.1194C43.5244 29.8905 43.5244 29.6616 43.5244 29.4258C46.3282 29.4258 49.132 29.4258 52.0208 29.4258C52.0208 29.6547 52.0208 29.8835 52.0208 30.1194C51.8746 30.1404 51.7284 30.1614 51.5778 30.183C51.3878 30.2121 51.1978 30.2411 51.0021 30.2711C50.7184 30.3133 50.7184 30.3133 50.4291 30.3564C49.9194 30.425 49.9194 30.425 49.5933 30.8129C49.3446 31.4729 49.393 32.1786 49.3919 32.874C49.3911 33.0111 49.3902 33.1482 49.3893 33.2895C49.3868 33.7423 49.3856 34.1951 49.3846 34.648C49.3836 34.9633 49.3826 35.2786 49.3816 35.5939C49.3798 36.2547 49.3788 36.9156 49.3782 37.5765C49.3773 38.4223 49.3731 39.2681 49.3681 40.1139C49.3649 40.7651 49.364 41.4164 49.3638 42.0676C49.3632 42.3794 49.3618 42.6912 49.3596 43.003C49.3566 43.4396 49.3569 43.876 49.3581 44.3127C49.3565 44.4408 49.3549 44.5689 49.3532 44.7009C49.3597 45.5137 49.4958 46.0816 49.94 46.7653C50.4468 46.9647 50.4468 46.9647 51.0129 47.0038C51.2014 47.0266 51.3898 47.0494 51.5839 47.0728C51.8002 47.0923 51.8002 47.0923 52.0208 47.1121C52.0208 47.3982 52.0208 47.6843 52.0208 47.9791C49.217 47.9791 46.4132 47.9791 43.5244 47.9791C43.5244 47.693 43.5244 47.4069 43.5244 47.1121C43.7407 47.0836 43.7407 47.0836 43.9613 47.0546C44.1497 47.0271 44.3381 46.9996 44.5323 46.9712C44.7194 46.9451 44.9064 46.9189 45.0992 46.892C45.7348 46.7341 45.7348 46.7341 46.1253 46.2452C46.2902 45.3317 46.3336 44.4343 46.3536 43.5094C46.3568 43.3845 46.3601 43.2596 46.3634 43.131C46.3751 42.6699 46.3856 42.2088 46.3963 41.7477C46.4213 40.7142 46.4463 39.6806 46.4721 38.6157C43.3822 38.6157 40.2923 38.6157 37.1088 38.6157C37.1267 39.7995 37.1445 40.9832 37.163 42.2029C37.1673 42.5752 37.1716 42.9475 37.176 43.3311C37.1816 43.6276 37.1874 43.9241 37.1934 44.2206C37.1945 44.3734 37.1956 44.5262 37.1967 44.6837C37.216 45.5083 37.2466 46.1076 37.8024 46.7653C38.3112 46.9442 38.3112 46.9442 38.8752 46.9929C39.0637 47.0173 39.2521 47.0416 39.4462 47.0667C39.6625 47.0892 39.6625 47.0892 39.8831 47.1121C39.8831 47.3982 39.8831 47.6843 39.8831 47.9791C37.0793 47.9791 34.2755 47.9791 31.3867 47.9791C31.3867 47.693 31.3867 47.4069 31.3867 47.1121C31.5309 47.0951 31.6751 47.0782 31.8236 47.0607C32.012 47.0347 32.2004 47.0088 32.3946 46.9821C32.6752 46.9459 32.6752 46.9459 32.9615 46.9089C33.466 46.8026 33.466 46.8026 33.7838 46.5025C34.43 45.1371 34.1865 43.3254 34.1841 41.8405C34.1842 41.5825 34.1844 41.3246 34.1846 41.0666C34.1848 40.5281 34.1845 39.9896 34.1837 39.4511C34.1827 38.7654 34.1832 38.0796 34.1843 37.3939C34.1849 36.8618 34.1847 36.3296 34.1843 35.7975C34.1841 35.5448 34.1843 35.2922 34.1847 35.0396C34.3301 32.6496 34.3301 32.6496 33.6409 30.4662C33.1019 30.3265 33.1019 30.3265 32.4921 30.2602C32.183 30.219 32.183 30.219 31.8676 30.1769C31.7089 30.1579 31.5502 30.1389 31.3867 30.1194C31.3867 29.8905 31.3867 29.6616 31.3867 29.4258Z" fill="#F3F3F3"/>
<path d="M91.5538 0.464844C96.3603 0.464844 101.167 0.464844 106.119 0.464844C106.318 0.862685 106.343 1.15695 106.385 1.59937C106.4 1.75706 106.415 1.91475 106.431 2.07722C106.446 2.24251 106.461 2.4078 106.477 2.5781C106.5 2.82101 106.5 2.82101 106.524 3.06883C106.606 3.93907 106.657 4.79276 106.639 5.66671C106.353 5.66671 106.067 5.66671 105.772 5.66671C105.707 5.4765 105.642 5.28628 105.575 5.09031C105.486 4.83807 105.396 4.58588 105.306 4.33373C105.243 4.14614 105.243 4.14614 105.178 3.95477C104.798 2.90116 104.341 2.26344 103.309 1.74736C102.656 1.47801 102.065 1.43118 101.357 1.41649C101.142 1.41075 100.926 1.405 100.705 1.39909C100.435 1.39477 100.165 1.39046 99.8876 1.38601C99.0258 1.36813 98.1639 1.35024 97.2759 1.33182C97.2759 4.02119 97.2759 6.71055 97.2759 9.48141C100.565 9.6126 100.565 9.6126 101.784 8.78783C102.114 8.06131 102.21 7.32237 102.304 6.53369C102.59 6.53369 102.877 6.53369 103.171 6.53369C103.171 8.82251 103.171 11.1113 103.171 13.4695C102.885 13.4695 102.599 13.4695 102.304 13.4695C102.287 13.3274 102.27 13.1852 102.253 13.0387C102.227 12.8519 102.201 12.665 102.174 12.4725C102.15 12.2874 102.126 12.1023 102.101 11.9117C101.934 11.3026 101.767 11.0715 101.264 10.6952C100.455 10.4714 99.6159 10.4644 98.7823 10.4243C98.6373 10.4168 98.4923 10.4093 98.343 10.4016C97.9873 10.3833 97.6316 10.3658 97.2759 10.3484C97.2923 11.2702 97.3107 12.192 97.3309 13.1138C97.3375 13.4264 97.3435 13.7389 97.349 14.0515C97.381 15.852 97.4502 17.5925 97.7961 19.365C100.041 19.8505 102.826 20.1625 104.884 18.9206C106.474 17.7207 106.961 15.9928 107.506 14.1631C107.792 14.1631 108.078 14.1631 108.373 14.1631C108.431 16.3958 108.231 18.506 108.026 20.7521C102.476 20.7521 96.9256 20.7521 91.207 20.7521C91.207 20.466 91.207 20.1799 91.207 19.8851C91.3637 19.8556 91.5204 19.8261 91.6818 19.7957C91.8864 19.7537 92.0909 19.7117 92.3016 19.6684C92.5048 19.6282 92.7079 19.5879 92.9173 19.5465C93.5504 19.3352 93.6726 19.2526 93.9814 18.6714C94.0573 18.15 94.0506 17.6335 94.0459 17.1074C94.0466 16.9495 94.0472 16.7915 94.0478 16.6288C94.0492 16.1067 94.0469 15.5847 94.0444 15.0626C94.0443 14.6998 94.0444 14.337 94.0446 13.9742C94.0446 13.2139 94.0428 12.4537 94.0397 11.6934C94.0357 10.7185 94.0356 9.7436 94.0368 8.76867C94.0374 8.01956 94.0362 7.27046 94.0345 6.52135C94.0339 6.16186 94.0337 5.80236 94.0339 5.44287C94.034 4.9406 94.0318 4.4384 94.029 3.93614C94.0294 3.78732 94.0298 3.63849 94.0303 3.48515C94.0291 3.34806 94.0278 3.21096 94.0266 3.06971C94.0262 2.95106 94.0259 2.8324 94.0255 2.71015C93.9724 2.30373 93.848 2.02723 93.6346 1.67861C93.2125 1.4676 92.8684 1.4498 92.3991 1.40768C92.2413 1.39315 92.0835 1.37862 91.9209 1.36366C91.7998 1.35315 91.6786 1.34265 91.5538 1.33182C91.5538 1.04572 91.5538 0.759616 91.5538 0.464844Z" fill="#EEEEEE"/>
<path d="M138.156 1.58461C138.7 1.9511 139.235 2.32623 139.763 2.71642C139.786 2.59729 139.809 2.47815 139.833 2.35541C139.863 2.19917 139.894 2.04293 139.925 1.88196C139.956 1.72706 139.986 1.57216 140.017 1.41257C140.11 0.982468 140.11 0.982468 140.283 0.462281C140.569 0.462281 140.855 0.462281 141.15 0.462281C141.207 3.03721 141.265 5.61213 141.323 8.26508C141.037 8.26508 140.751 8.26508 140.457 8.26508C140.419 8.10147 140.381 7.93785 140.341 7.76928C139.803 5.54729 139.145 3.53249 137.162 2.19624C135.291 1.1697 133.328 0.803304 131.223 1.3401C129.646 1.89053 128.574 3 127.799 4.45038C126.295 7.64625 126.085 11.654 127.105 15.0275C127.824 16.8761 128.901 18.5107 130.746 19.3624C132.784 20.1013 134.555 20.0026 136.559 19.1836C138.162 18.3742 139.115 17.0179 139.763 15.3743C140.019 14.5707 140.246 13.7636 140.457 12.9468C140.743 12.9468 141.029 12.9468 141.323 12.9468C141.323 15.35 141.323 17.7533 141.323 20.2294C141.037 20.2294 140.751 20.2294 140.457 20.2294C140.228 19.6572 139.999 19.085 139.763 18.4954C139.268 18.4954 139.099 18.7325 138.723 19.0481C137.173 20.2786 135.497 20.9397 133.521 21.0964C133.409 21.1057 133.298 21.1151 133.183 21.1248C130.484 21.2377 127.879 20.3625 125.815 18.6255C123.728 16.603 122.912 14.0537 122.77 11.2128C122.742 8.12162 123.66 4.80931 125.853 2.53625C129.256 -0.465957 134.356 -0.82806 138.156 1.58461Z" fill="#EEEEEE"/>
<path d="M94.503 29.425C95.2646 29.3774 96.0254 29.343 96.788 29.3202C97.0466 29.3107 97.3051 29.2977 97.5633 29.2811C99.6946 29.1475 99.6946 29.1475 100.539 29.8039C100.943 30.2936 101.28 30.7918 101.612 31.3323C101.805 31.5938 102 31.8536 102.198 32.1113C102.383 32.3643 102.567 32.6176 102.75 32.8712C103.629 34.0743 104.521 35.265 105.427 36.4475C106.437 37.7673 107.433 39.0968 108.413 40.4393C108.894 41.0969 109.382 41.7472 109.883 42.3895C109.991 42.5276 110.098 42.6658 110.209 42.8081C110.291 42.9121 110.372 43.0161 110.455 43.1232C110.463 41.6687 110.47 40.2142 110.473 38.7596C110.475 38.0842 110.478 37.4087 110.482 36.7333C110.485 36.0812 110.487 35.4291 110.488 34.7771C110.489 34.5285 110.49 34.28 110.492 34.0315C110.495 33.6828 110.495 33.3342 110.495 32.9856C110.496 32.7873 110.496 32.589 110.497 32.3847C110.455 31.8429 110.353 31.4687 110.109 30.9855C109.368 30.3606 108.437 30.2719 107.508 30.1186C107.508 29.8897 107.508 29.6608 107.508 29.425C109.739 29.425 111.971 29.425 114.27 29.425C114.27 29.6539 114.27 29.8827 114.27 30.1186C114.126 30.1586 113.982 30.1986 113.833 30.2398C113.645 30.2964 113.456 30.3529 113.262 30.4112C113.075 30.4655 112.888 30.5198 112.695 30.5758C112.065 30.8703 111.953 31.0467 111.669 31.6791C111.593 32.2214 111.593 32.7586 111.594 33.3056C111.592 33.4681 111.591 33.6306 111.589 33.798C111.584 34.3337 111.582 34.8694 111.58 35.4051C111.578 35.7771 111.574 36.149 111.571 36.521C111.563 37.499 111.558 38.477 111.553 39.4551C111.548 40.4535 111.54 41.4519 111.532 42.4503C111.517 44.4086 111.505 46.3668 111.496 48.3251C110.668 48.3604 110.668 48.3604 110.314 48.0431C110.218 47.9115 110.122 47.78 110.023 47.6444C109.913 47.4971 109.803 47.3498 109.69 47.198C109.574 47.0371 109.458 46.8762 109.339 46.7104C109.217 46.5452 109.095 46.38 108.969 46.2098C108.595 45.703 108.225 45.1936 107.855 44.6838C107.647 44.4011 107.439 44.1187 107.231 43.8365C106.935 43.4354 106.639 43.0343 106.344 42.6323C105.588 41.6017 104.817 40.5837 104.04 39.5686C103.056 38.2833 102.085 36.9898 101.13 35.6835C100.147 34.3399 99.1447 33.0101 98.1443 31.6791C98.1323 33.4728 98.1231 35.2664 98.1174 37.0601C98.1147 37.893 98.111 38.7259 98.1051 39.5588C98.0995 40.3626 98.0963 41.1665 98.095 41.9703C98.094 42.2769 98.0922 42.5835 98.0893 42.8901C98.0856 43.3198 98.0851 43.7493 98.0853 44.179C98.0834 44.3056 98.0816 44.4322 98.0796 44.5626C98.0843 45.3265 98.1941 45.8103 98.6645 46.4178C99.0151 46.6241 99.0151 46.6241 99.4123 46.7212C99.5491 46.7608 99.6859 46.8003 99.8268 46.8411C100.304 46.9571 100.779 47.0489 101.265 47.1113C101.265 47.3974 101.265 47.6835 101.265 47.9783C98.9194 47.9783 96.5734 47.9783 94.1562 47.9783C94.1562 47.6922 94.1562 47.4061 94.1562 47.1113C94.3129 47.0693 94.4696 47.0273 94.6311 46.984C94.9378 46.8968 94.9378 46.8968 95.2508 46.8079C95.454 46.7516 95.6572 46.6952 95.8665 46.6372C96.4738 46.3922 96.6196 46.2877 96.9306 45.7242C96.9809 45.2609 97.0017 44.8384 96.9979 44.3754C96.9993 44.1727 96.9993 44.1727 97.0007 43.9659C97.0029 43.5195 97.0014 43.0732 96.9997 42.6268C97 42.3158 97.0005 42.0048 97.0012 41.6938C97.0019 41.0418 97.0008 40.3898 96.9984 39.7378C96.9954 38.9041 96.9971 38.0704 97.0003 37.2366C97.0021 36.5941 97.0015 35.9517 97.0002 35.3092C96.9998 35.0019 97.0003 34.6946 97.0015 34.3873C97.0028 33.9566 97.0008 33.526 96.9979 33.0952C96.9989 32.9693 97 32.8434 97.0011 32.7138C96.9902 31.8314 96.8221 31.2313 96.4104 30.4654C95.9462 30.2465 95.9462 30.2465 95.4242 30.2161C95.2519 30.1949 95.0795 30.1736 94.902 30.1518C94.7703 30.1408 94.6387 30.1299 94.503 30.1186C94.503 29.8897 94.503 29.6608 94.503 29.425Z" fill="#EBEBEB"/>
<path d="M136.032 29.01C136.259 29.007 136.259 29.007 136.491 29.0039C137.941 29.0104 139.273 29.322 140.508 30.1046C140.721 30.239 140.721 30.239 140.938 30.3762C141.375 30.672 141.789 30.9838 142.188 31.3292C142.359 30.757 142.531 30.1848 142.708 29.5952C142.994 29.5952 143.28 29.5952 143.575 29.5952C143.575 31.7124 143.575 33.8295 143.575 36.0108C143.289 36.0108 143.003 36.0108 142.708 36.0108C142.657 35.8412 142.607 35.6715 142.555 35.4968C141.979 33.6275 141.299 31.9186 139.587 30.809C137.874 29.9213 136.24 29.7435 134.385 30.2888C133.831 30.5325 133.329 30.8218 132.824 31.1558C132.667 31.2595 132.51 31.3632 132.348 31.4701C130.48 33.2855 130.236 36.051 130.18 38.5251C130.239 40.9587 130.484 43.6772 132.255 45.5083C133.444 46.6246 134.673 47.2044 136.309 47.2985C137.598 47.2551 138.805 46.9279 139.864 46.1843C140.653 45.2432 140.705 44.2499 140.681 43.0767C140.682 42.8682 140.682 42.8682 140.683 42.6554C140.677 41.974 140.666 41.6176 140.28 41.0393C139.781 40.9 139.781 40.9 139.218 40.8334C138.933 40.7922 138.933 40.7922 138.643 40.7501C138.496 40.7311 138.35 40.7121 138.2 40.6925C138.2 40.4064 138.2 40.1203 138.2 39.8256C140.832 39.8256 143.464 39.8256 146.176 39.8256C146.176 40.1117 146.176 40.3978 146.176 40.6925C146.057 40.7075 145.938 40.7225 145.815 40.7379C145.659 40.7623 145.502 40.7866 145.341 40.8117C145.186 40.8339 145.032 40.856 144.872 40.8788C144.285 41.0977 144.191 41.3478 143.922 41.9063C143.835 42.4584 143.835 42.4584 143.833 43.053C143.824 43.3774 143.824 43.3774 143.814 43.7083C143.81 43.9326 143.807 44.1569 143.803 44.388C143.797 44.6157 143.791 44.8433 143.785 45.0779C143.77 45.639 143.758 46.2001 143.748 46.7614C143.603 46.7813 143.457 46.8011 143.307 46.8216C142.174 46.9845 141.102 47.1804 140.02 47.5525C137.499 48.3937 134.404 48.6668 131.957 47.455C131.809 47.3834 131.661 47.3119 131.509 47.2382C129.207 45.9916 127.839 44.0624 127.073 41.6022C126.615 39.6227 126.651 37.0174 127.449 35.1439C127.528 34.9528 127.606 34.7617 127.687 34.5648C128.687 32.3549 130.161 30.5106 132.478 29.5952C133.679 29.1562 134.756 28.993 136.032 29.01Z" fill="#EDEDED"/>
<path d="M10.4625 0.113281C10.9239 0.290317 10.9239 0.290317 11.2434 0.828369C11.347 1.07158 11.4468 1.3164 11.5437 1.56234C11.5994 1.69579 11.6551 1.82924 11.7125 1.96673C11.8972 2.41094 12.077 2.85694 12.2569 3.30307C12.3856 3.61498 12.5147 3.92676 12.644 4.23841C12.9164 4.8958 13.1869 5.5539 13.4561 6.21261C13.8652 7.21246 14.2805 8.20959 14.698 9.20597C14.7655 9.3671 14.833 9.52823 14.9025 9.69424C15.0375 10.0163 15.1726 10.3384 15.3076 10.6604C15.507 11.1358 15.7061 11.6114 15.9052 12.0869C16.2126 12.8214 16.5204 13.5556 16.8283 14.2898C16.9813 14.6548 17.134 15.0199 17.2866 15.385C17.5264 15.9571 17.7684 16.5282 18.0115 17.0989C18.0764 17.2547 18.1413 17.4105 18.2082 17.571C18.5172 18.2892 18.7788 18.8808 19.4203 19.3638C19.7844 19.5168 19.7844 19.5168 20.1572 19.5806C20.4791 19.6449 20.4791 19.6449 20.8075 19.7106C20.8075 20.0539 20.8075 20.3973 20.8075 20.751C18.1753 20.751 15.5432 20.751 12.8313 20.751C12.8313 20.4649 12.8313 20.1788 12.8313 19.884C13.5179 19.7124 14.2046 19.5407 14.912 19.3638C15.1164 18.5463 15.0003 18.3187 14.6912 17.5527C14.649 17.4467 14.6069 17.3407 14.5634 17.2316C14.4285 16.894 14.291 16.5575 14.1534 16.221C14.062 15.9933 13.9708 15.7655 13.8798 15.5376C13.4704 14.4905 13.4704 14.4905 13.0047 13.4684C10.5442 13.4684 8.0837 13.4684 5.54866 13.4684C5.32335 14.0442 5.09805 14.6199 4.86591 15.2132C4.79507 15.3922 4.72423 15.5713 4.65124 15.7558C4.05805 17.2399 4.05805 17.2399 4.09512 18.8077C4.40708 19.3056 4.67373 19.4011 5.22354 19.5914C5.38134 19.648 5.53915 19.7045 5.70173 19.7628C5.82288 19.8028 5.94403 19.8428 6.06884 19.884C6.06884 20.1701 6.06884 20.4562 6.06884 20.751C4.06613 20.751 2.06341 20.751 0 20.751C0 20.4077 0 20.0643 0 19.7106C0.333019 19.6034 0.666038 19.4961 0.999056 19.3889C2.04095 18.8561 2.47202 17.9823 2.89896 16.9553C2.95727 16.8196 3.01559 16.6839 3.07568 16.5441C3.26658 16.0978 3.45416 15.6502 3.64131 15.2023C3.77178 14.8929 3.90228 14.5835 4.0328 14.2741C4.38108 13.4455 4.72605 12.6155 5.07002 11.7851C5.44655 10.8763 5.82452 9.96801 6.20228 9.05966C6.27814 8.87716 6.354 8.69466 6.43216 8.50662C7.12521 6.83966 7.82087 5.1738 8.52009 3.50942C8.64118 3.22102 8.76212 2.93255 8.88288 2.64401C9.04873 2.24783 9.21511 1.85188 9.38165 1.456C9.43043 1.33919 9.47921 1.22239 9.52946 1.10204C9.94485 0.117928 9.94485 0.117928 10.4625 0.113281ZM9.18996 4.27842C8.77605 5.27163 8.36261 6.26505 7.94961 7.25865C7.80914 7.59641 7.66854 7.93411 7.52781 8.27176C7.32517 8.758 7.123 9.24443 6.92092 9.73089C6.85823 9.88103 6.79555 10.0312 6.73096 10.1859C6.67197 10.3281 6.61298 10.4704 6.5522 10.6169C6.50061 10.7409 6.44901 10.8649 6.39585 10.9926C6.2122 11.4649 6.05568 11.9473 5.89545 12.428C8.12705 12.428 10.3587 12.428 12.6579 12.428C12.2703 11.2403 12.2703 11.2403 11.824 10.0854C11.7685 9.95363 11.713 9.82183 11.6558 9.68604C11.5978 9.54997 11.5398 9.41389 11.48 9.2737C11.4192 9.12966 11.3583 8.98561 11.2956 8.83721C11.1036 8.38303 10.9108 7.92921 10.718 7.4754C10.5867 7.16509 10.4554 6.85476 10.3241 6.54441C10.0045 5.78882 9.68413 5.03353 9.36336 4.27842C9.30614 4.27842 9.24892 4.27842 9.18996 4.27842Z" fill="#ECECEC"/>
<path d="M62.4273 0.464844C67.5772 0.464844 72.727 0.464844 78.0329 0.464844C78.2772 0.953514 78.2257 1.36173 78.2232 1.90755C78.2224 2.23444 78.2224 2.23444 78.2215 2.56794C78.2194 2.91093 78.2194 2.91093 78.2171 3.26085C78.2163 3.49317 78.2155 3.72549 78.2148 3.95782C78.2127 4.52746 78.2099 5.09708 78.2063 5.66671C77.9202 5.66671 77.6341 5.66671 77.3393 5.66671C77.3138 5.5326 77.2884 5.39849 77.2621 5.26031C76.929 3.71362 76.423 2.58183 75.0852 1.67861C74.4489 1.46653 73.85 1.46512 73.1866 1.45035C73.0085 1.4455 73.0085 1.4455 72.8267 1.44055C72.3838 1.42873 71.9409 1.41829 71.4981 1.40768C70.0121 1.37013 70.0121 1.37013 68.4961 1.33182C68.4961 4.07841 68.4961 6.82499 68.4961 9.65481C70.6197 9.63291 70.6197 9.63291 72.6576 8.96123C72.9867 8.45718 73.0914 7.94435 73.1995 7.35732C73.2286 7.20264 73.2576 7.04797 73.2876 6.88861C73.3191 6.71292 73.3191 6.71292 73.3512 6.53369C73.6373 6.53369 73.9234 6.53369 74.2182 6.53369C74.2182 8.93695 74.2182 11.3402 74.2182 13.8163C73.9321 13.8163 73.646 13.8163 73.3512 13.8163C73.3157 13.6471 73.2801 13.4779 73.2435 13.3036C73.1968 13.083 73.1501 12.8623 73.102 12.635C73.0557 12.4158 73.0094 12.1965 72.9618 11.9706C72.8424 11.3939 72.8424 11.3939 72.6576 10.8686C72.1628 10.6813 71.663 10.6639 71.1377 10.6403C70.9835 10.6331 70.8293 10.6258 70.6704 10.6183C70.431 10.6081 70.431 10.6081 70.1868 10.5976C70.0245 10.5902 69.8622 10.5827 69.695 10.575C69.2954 10.5566 68.8958 10.5389 68.4961 10.5218C68.5169 11.3759 68.5384 12.2299 68.5607 13.084C68.5682 13.3737 68.5754 13.6634 68.5824 13.9532C68.6017 16.6816 68.6017 16.6816 69.0163 19.365C69.9319 19.5366 70.8474 19.7083 71.7907 19.8851C71.7907 20.1712 71.7907 20.4574 71.7907 20.7521C68.6435 20.7521 65.4964 20.7521 62.2539 20.7521C62.2539 20.466 62.2539 20.1799 62.2539 19.8851C62.4889 19.8566 62.4889 19.8566 62.7287 19.8276C62.9332 19.8001 63.1377 19.7726 63.3485 19.7443C63.5516 19.7181 63.7548 19.692 63.9642 19.665C64.5379 19.5314 64.668 19.4565 65.0282 19.0182C65.5319 17.4933 65.4253 15.8757 65.4211 14.2877C65.4213 13.9788 65.4217 13.6699 65.4221 13.3609C65.4226 12.7156 65.4219 12.0703 65.4202 11.4249C65.4183 10.6011 65.4194 9.7774 65.4215 8.95362C65.4227 8.31633 65.4223 7.67906 65.4214 7.04177C65.4212 6.73816 65.4215 6.43456 65.4223 6.13095C65.4597 3.96151 65.4597 3.96151 65.0282 1.85201C64.4379 1.45848 64.1326 1.44184 63.4352 1.39684C63.2467 1.38388 63.0583 1.37092 62.8642 1.35756C62.72 1.34907 62.5758 1.34057 62.4273 1.33182C62.4273 1.04572 62.4273 0.759616 62.4273 0.464844Z" fill="#F1F1F1"/>
<path d="M33.4664 0.464844C38.6162 0.464844 43.7661 0.464844 49.072 0.464844C49.3163 0.953514 49.2648 1.36173 49.2623 1.90755C49.2615 2.23444 49.2615 2.23444 49.2606 2.56794C49.2584 2.91093 49.2584 2.91093 49.2562 3.26085C49.2553 3.49317 49.2545 3.72549 49.2538 3.95782C49.2518 4.52746 49.2489 5.09708 49.2454 5.66671C48.9593 5.66671 48.6732 5.66671 48.3784 5.66671C48.3529 5.5326 48.3274 5.39849 48.3012 5.26031C47.9681 3.71362 47.462 2.58183 46.1242 1.67861C45.488 1.46653 44.8891 1.46512 44.2257 1.45035C44.0475 1.4455 44.0475 1.4455 43.8658 1.44055C43.4229 1.42873 42.98 1.41829 42.5371 1.40768C41.0512 1.37013 41.0512 1.37013 39.5352 1.33182C39.5352 4.07841 39.5352 6.82499 39.5352 9.65481C41.6588 9.63291 41.6588 9.63291 43.6967 8.96123C44.0257 8.45718 44.1304 7.94435 44.2386 7.35732C44.2676 7.20264 44.2967 7.04797 44.3266 6.88861C44.3581 6.71292 44.3581 6.71292 44.3903 6.53369C44.6764 6.53369 44.9625 6.53369 45.2573 6.53369C45.2573 8.93695 45.2573 11.3402 45.2573 13.8163C44.9712 13.8163 44.6851 13.8163 44.3903 13.8163C44.3547 13.6471 44.3192 13.4779 44.2826 13.3036C44.2359 13.083 44.1892 12.8623 44.141 12.635C44.0948 12.4158 44.0485 12.1965 44.0008 11.9706C43.8815 11.3939 43.8815 11.3939 43.6967 10.8686C43.2018 10.6813 42.702 10.6639 42.1768 10.6403C42.0226 10.6331 41.8683 10.6258 41.7094 10.6183C41.47 10.6081 41.47 10.6081 41.2258 10.5976C41.0635 10.5902 40.9013 10.5827 40.7341 10.575C40.3345 10.5566 39.9349 10.5389 39.5352 10.5218C39.5559 11.3759 39.5775 12.2299 39.5998 13.084C39.6072 13.3737 39.6144 13.6634 39.6214 13.9532C39.6407 16.6816 39.6407 16.6816 40.0554 19.365C40.9709 19.5366 41.8865 19.7083 42.8297 19.8851C42.8297 20.1712 42.8297 20.4574 42.8297 20.7521C39.6826 20.7521 36.5355 20.7521 33.293 20.7521C33.293 20.466 33.293 20.1799 33.293 19.8851C33.528 19.8566 33.528 19.8566 33.7678 19.8276C33.9723 19.8001 34.1768 19.7726 34.3875 19.7443C34.5907 19.7181 34.7939 19.692 35.0032 19.665C35.5769 19.5314 35.7071 19.4565 36.0673 19.0182C36.571 17.4933 36.4644 15.8757 36.4601 14.2877C36.4604 13.9788 36.4607 13.6699 36.4612 13.3609C36.4617 12.7156 36.4609 12.0703 36.4593 11.4249C36.4573 10.6011 36.4585 9.7774 36.4605 8.95362C36.4618 8.31633 36.4614 7.67906 36.4605 7.04177C36.4603 6.73816 36.4605 6.43456 36.4614 6.13095C36.4987 3.96151 36.4987 3.96151 36.0673 1.85201C35.477 1.45848 35.1717 1.44184 34.4742 1.39684C34.2858 1.38388 34.0974 1.37092 33.9032 1.35756C33.7591 1.34907 33.6149 1.34057 33.4664 1.33182C33.4664 1.04572 33.4664 0.759616 33.4664 0.464844Z" fill="#F1F1F1"/>
<path d="M159.003 29.4258C163.352 29.4258 167.701 29.4258 172.181 29.4258C172.584 32.646 172.584 32.646 172.528 34.1075C172.242 34.0502 171.956 33.993 171.661 33.9341C171.601 33.7269 171.601 33.7269 171.54 33.5155C171.163 32.2929 170.856 31.3421 169.775 30.5854C168.609 30.2081 167.336 30.2412 166.123 30.1952C165.49 30.1702 164.857 30.1452 164.205 30.1194C164.205 32.6371 164.205 35.1548 164.205 37.7488C167.425 37.7964 167.425 37.7964 168.366 36.7084C168.486 36.2626 168.486 36.2626 168.496 35.7981C168.511 35.5661 168.511 35.5661 168.526 35.3294C168.533 35.1537 168.533 35.1537 168.54 34.9744C168.826 34.9744 169.112 34.9744 169.407 34.9744C169.407 37.0916 169.407 39.2088 169.407 41.3901C169.121 41.3901 168.835 41.3901 168.54 41.3901C168.521 41.2314 168.502 41.0727 168.482 40.9092C168.455 40.7031 168.427 40.497 168.399 40.2847C168.373 40.0795 168.347 39.8743 168.32 39.6629C168.244 39.0847 168.244 39.0847 167.673 38.7891C166.945 38.5938 166.201 38.562 165.451 38.5182C165.271 38.507 165.271 38.507 165.087 38.4955C164.793 38.4773 164.499 38.4597 164.205 38.4424C164.221 39.4637 164.24 40.4849 164.26 41.5062C164.267 41.8535 164.273 42.2008 164.278 42.5481C164.286 43.0478 164.296 43.5475 164.307 44.0472C164.309 44.2021 164.311 44.3569 164.313 44.5164C164.335 45.5955 164.335 45.5955 164.725 46.5919C165.567 47.0193 166.445 46.9991 167.369 46.9929C167.589 46.9918 167.589 46.9918 167.812 46.9907C169.094 46.9675 170.147 46.7858 171.271 46.1476C172.346 44.9824 172.913 43.5745 173.395 42.0837C173.681 42.0837 173.967 42.0837 174.262 42.0837C174.237 42.6761 174.212 43.2685 174.186 43.861C174.179 44.0255 174.172 44.19 174.165 44.3595C174.112 45.5716 174.016 46.7679 173.915 47.9791C168.88 47.9791 163.844 47.9791 158.656 47.9791C158.656 47.693 158.656 47.4069 158.656 47.1121C158.788 47.0972 158.92 47.0822 159.055 47.0667C159.228 47.0424 159.4 47.018 159.577 46.9929C159.748 46.9708 159.919 46.9487 160.096 46.9259C160.583 46.8049 160.583 46.8049 160.849 46.4118C161.15 45.7537 161.154 45.1671 161.146 44.458C161.146 44.3152 161.146 44.1725 161.147 44.0254C161.147 43.5549 161.144 43.0845 161.141 42.614C161.14 42.2865 161.14 41.9589 161.14 41.6314C161.139 40.9456 161.136 40.2598 161.133 39.574C161.128 38.695 161.126 37.8159 161.125 36.9368C161.124 36.2607 161.123 35.5847 161.12 34.9086C161.12 34.5844 161.119 34.2603 161.118 33.9361C161.117 33.4833 161.114 33.0305 161.112 32.5777C161.112 32.4437 161.111 32.3098 161.111 32.1717C161.106 31.562 161.06 31.0626 160.91 30.4662C160.281 30.3517 159.652 30.2373 159.003 30.1194C159.003 29.8905 159.003 29.6616 159.003 29.4258Z" fill="#EDEDED"/>
<path d="M156.232 0.464844C162.698 0.464844 169.164 0.464844 175.826 0.464844C175.883 2.06702 175.94 3.66919 175.999 5.31992C175.713 5.31992 175.427 5.31992 175.132 5.31992C175.072 5.11875 175.072 5.11875 175.011 4.91352C174.518 3.26467 174.518 3.26467 173.572 1.85201C172.869 1.50231 172.262 1.45333 171.482 1.43342C171.368 1.43006 171.254 1.4267 171.136 1.42324C170.774 1.41294 170.412 1.40486 170.05 1.39684C169.803 1.39022 169.556 1.38345 169.31 1.37653C168.707 1.35994 168.105 1.34535 167.503 1.33182C167.518 3.45564 167.534 5.57944 167.553 7.70322C167.561 8.68945 167.569 9.67567 167.576 10.6619C167.582 11.6142 167.59 12.5664 167.6 13.5187C167.603 13.8815 167.605 14.2443 167.607 14.6071C167.61 15.1163 167.615 15.6255 167.621 16.1348C167.621 16.2838 167.622 16.4329 167.622 16.5864C167.635 17.5075 167.732 18.3139 168.023 19.1916C168.637 19.6007 169.062 19.64 169.79 19.7334C170.01 19.7625 170.231 19.7915 170.458 19.8215C170.712 19.853 170.712 19.853 170.971 19.8851C170.971 20.1712 170.971 20.4574 170.971 20.7521C167.652 20.7521 164.333 20.7521 160.914 20.7521C160.914 20.466 160.914 20.1799 160.914 19.8851C161.165 19.8566 161.165 19.8566 161.42 19.8276C161.64 19.8001 161.859 19.7726 162.084 19.7443C162.302 19.7181 162.519 19.692 162.743 19.665C163.332 19.5404 163.614 19.4397 164.035 19.0182C164.192 18.5475 164.231 18.2679 164.236 17.7837C164.237 17.6386 164.239 17.4934 164.241 17.3439C164.242 17.1852 164.243 17.0266 164.244 16.8631C164.246 16.6956 164.247 16.5281 164.249 16.3555C164.255 15.8011 164.259 15.2466 164.263 14.6921C164.267 14.308 164.27 13.9238 164.274 13.5397C164.284 12.528 164.292 11.5164 164.301 10.5047C164.309 9.4726 164.319 8.44053 164.329 7.40846C164.347 5.38292 164.365 3.35737 164.382 1.33182C163.657 1.3438 162.932 1.35907 162.207 1.37733C161.961 1.38308 161.714 1.38794 161.468 1.39189C161.113 1.39774 160.758 1.40681 160.402 1.41649C160.082 1.4233 160.082 1.4233 159.756 1.43025C158.937 1.53684 158.491 1.81997 157.955 2.43722C157.414 3.30247 157.197 4.34624 156.926 5.31992C156.64 5.31992 156.354 5.31992 156.059 5.31992C156.054 4.57577 156.051 3.83162 156.048 3.08745C156.046 2.87533 156.045 2.66321 156.044 2.44467C156.043 2.24239 156.042 2.0401 156.042 1.83169C156.041 1.64463 156.04 1.45758 156.039 1.26485C156.059 0.811635 156.059 0.811635 156.232 0.464844Z" fill="#F0F0F0"/>
<path d="M14.5388 30.0662C14.9671 30.3587 15.3785 30.6628 15.7872 30.9819C16.016 31.1536 16.2449 31.3252 16.4807 31.5021C16.6524 30.8155 16.8241 30.1288 17.0009 29.4214C17.2298 29.4214 17.4587 29.4214 17.6945 29.4214C17.8874 30.1935 17.8902 30.948 17.8848 31.7385C17.8846 31.8758 17.8843 32.0132 17.8841 32.1546C17.8831 32.591 17.881 33.0273 17.8787 33.4636C17.8779 33.7604 17.8771 34.0572 17.8764 34.354C17.8745 35.0795 17.8715 35.8051 17.8679 36.5306C17.639 36.5306 17.4101 36.5306 17.1743 36.5306C17.1258 36.3399 17.0773 36.1493 17.0273 35.9528C16.5262 34.0688 15.9955 32.2576 14.335 31.0686C14.0721 30.9163 13.8047 30.7712 13.533 30.6351C13.4179 30.5766 13.3028 30.518 13.1842 30.4577C11.785 29.8767 10.0302 29.8522 8.59328 30.306C6.83587 31.1245 5.913 32.3218 5.21003 34.103C4.25607 37.1114 4.1211 40.804 5.4857 43.7123C6.30583 45.2139 7.34891 46.3552 9.00306 46.9126C10.8514 47.3825 12.5466 47.0664 14.2564 46.2299C16.098 45.0565 16.5786 42.8238 17.1743 40.8655C17.4032 40.8655 17.6321 40.8655 17.8679 40.8655C17.8679 43.0399 17.8679 45.2142 17.8679 47.4545C17.639 47.4545 17.4101 47.4545 17.1743 47.4545C16.8882 46.8823 16.6021 46.3101 16.3073 45.7206C16.0892 45.9316 15.871 46.1426 15.6463 46.3599C13.5532 48.2278 11.2939 48.2657 8.62892 48.1792C7.69378 48.1175 6.90906 47.8731 6.07701 47.4545C5.92725 47.381 5.7775 47.3074 5.6232 47.2317C3.5427 46.0966 2.14252 44.3394 1.4612 42.0675C0.676267 38.9075 1.16253 35.5055 2.78927 32.705C5.21941 29.0647 10.7594 27.7468 14.5388 30.0662Z" fill="#EDEDED"/>
<path d="M73.0049 29.0781C73.291 29.0781 73.5771 29.0781 73.8718 29.0781C73.9891 29.3584 73.9891 29.3584 74.1088 29.6442C74.1613 29.7697 74.2139 29.8952 74.268 30.0245C74.3884 30.3121 74.5088 30.5998 74.6292 30.8874C74.9726 31.7078 75.3161 32.5282 75.6598 33.3485C76.3223 34.9297 76.9841 36.5112 77.6411 38.0947C77.918 38.7621 78.1956 39.4292 78.4732 40.0963C78.6046 40.4125 78.7357 40.7289 78.8665 41.0454C79.4693 42.5043 80.0763 43.9617 80.7575 45.3861C80.8472 45.5748 80.937 45.7636 81.0294 45.958C81.4901 46.6677 82.0791 46.9314 82.8884 47.1113C82.8884 47.3974 82.8884 47.6835 82.8884 47.9782C80.4851 47.9782 78.0819 47.9782 75.6058 47.9782C75.6058 47.6921 75.6058 47.406 75.6058 47.1113C76.2352 46.9968 76.8646 46.8824 77.5131 46.7645C77.7184 45.9434 77.5976 45.7109 77.2862 44.9411C77.2084 44.7457 77.1305 44.5503 77.0502 44.349C76.9491 44.1018 76.8479 43.8546 76.7437 43.6C76.4254 42.8132 76.1071 42.0264 75.7792 41.2158C72.4318 41.13 72.4318 41.13 69.0168 41.0424C68.8451 41.6146 68.6734 42.1868 68.4966 42.7764C68.3774 43.11 68.2554 43.4427 68.1281 43.7734C67.6538 44.9614 67.6538 44.9614 67.7921 46.1901C68.3044 46.7644 68.8063 46.8837 69.5369 47.1113C69.5369 47.3974 69.5369 47.6835 69.5369 47.9782C67.7059 47.9782 65.8748 47.9782 63.9883 47.9782C63.9883 47.6921 63.9883 47.406 63.9883 47.1113C64.1264 47.0513 64.1264 47.0513 64.2673 46.99C64.3898 46.9335 64.5123 46.8769 64.6385 46.8187C64.7592 46.7643 64.8799 46.71 65.0043 46.6541C65.9657 46.0418 66.3541 45.0098 66.7917 44.0057C66.859 43.8538 66.9262 43.7019 66.9954 43.5454C67.7745 41.7733 68.5105 39.9833 69.2443 38.1922C69.3881 37.8427 69.5318 37.4931 69.6757 37.1436C69.9598 36.4531 70.2437 35.7624 70.5274 35.0717C71.0279 33.8533 71.5315 32.6361 72.0356 31.4192C72.2457 30.9121 72.4556 30.4049 72.6655 29.8977C72.7786 29.6245 72.8917 29.3513 73.0049 29.0781ZM72.3113 32.8928C71.9468 33.7873 71.5827 34.6819 71.2191 35.5767C71.0954 35.8808 70.9716 36.1849 70.8477 36.4889C70.6692 36.927 70.4912 37.3652 70.3132 37.8034C70.2581 37.9384 70.203 38.0734 70.1462 38.2124C70.0941 38.3408 70.0421 38.4692 69.9885 38.6014C69.943 38.7131 69.8976 38.8247 69.8508 38.9398C69.6739 39.4042 69.5207 39.8774 69.3635 40.3488C71.3663 40.3488 73.369 40.3488 75.4324 40.3488C75.1032 39.2514 74.7815 38.2338 74.3304 37.1939C74.2507 37.007 74.2507 37.007 74.1693 36.8164C74.0024 36.4257 73.8342 36.0356 73.6659 35.6455C73.5513 35.3777 73.4367 35.11 73.3222 34.8422C73.044 34.192 72.7646 33.5423 72.4847 32.8928C72.4274 32.8928 72.3702 32.8928 72.3113 32.8928Z" fill="#ECECEC"/>
<path d="M131.094 30.293C131.208 30.3502 131.323 30.4074 131.441 30.4664C130.582 31.3247 129.724 32.183 128.84 33.0673C128.84 32.3627 129.105 32.1914 129.577 31.6801C129.714 31.5299 129.85 31.3797 129.991 31.225C130.342 30.8717 130.687 30.5771 131.094 30.293Z" fill="#C8C8C8"/>
</g>
<defs>
<clipPath id="clip0_5_22865">
<rect width="176" height="48.34" fill="white"/>
</clipPath>
</defs>
</svg>
