<svg width="106" height="120" viewBox="0 0 106 120" fill="none" xmlns="http://www.w3.org/2000/svg">
<path d="M55.2312 0.785156C56.0702 1.47776 56.3665 2.29138 56.772 3.28585C56.8441 3.46101 56.9163 3.63617 56.9906 3.81664C57.1484 4.20011 57.3052 4.58393 57.4613 4.96807C57.8036 5.8102 58.1502 6.65051 58.4966 7.49094C58.6827 7.94245 58.8686 8.39405 59.0543 8.84573C60.0352 11.2297 61.0388 13.6039 62.0442 15.9776C63.7829 20.0834 65.5118 24.1931 67.2312 28.307C68.8274 32.1253 70.4305 35.9405 72.041 39.7527C72.1437 39.9956 72.2463 40.2384 72.352 40.4887C73.0796 42.2109 73.8076 43.9329 74.5356 45.6549C75.3674 47.6222 76.199 49.5896 77.0302 51.5571C77.1328 51.8 77.2355 52.0429 77.3412 52.2932C78.9456 56.0917 80.5406 59.8942 82.1309 63.6987C83.6348 67.2962 85.1477 70.8897 86.6661 74.4811C88.3803 78.5356 90.0854 82.5937 91.783 86.6552C93.2869 90.2527 94.7999 93.8463 96.3183 97.4377C98.1854 101.854 100.042 106.274 101.891 110.698C101.982 110.915 102.073 111.132 102.166 111.355C102.344 111.78 102.521 112.205 102.698 112.629C103.159 113.732 103.622 114.832 104.091 115.931C104.188 116.159 104.285 116.388 104.386 116.623C104.572 117.062 104.759 117.5 104.948 117.937C105.579 119.423 105.579 119.423 105.579 120.003C70.8 120.003 36.0207 120.003 0.1875 120.003C0.430563 118.788 0.814545 117.81 1.33594 116.703C1.47245 116.409 1.47245 116.409 1.61172 116.109C1.91286 115.461 2.21596 114.813 2.51903 114.166C2.73218 113.708 2.94517 113.25 3.15802 112.792C3.60036 111.84 4.04334 110.888 4.48677 109.937C5.39269 107.992 6.29015 106.043 7.18789 104.095C9.50817 99.0596 11.8403 94.03 14.1725 89.0004C15.1038 86.9919 16.0345 84.9831 16.9654 82.9744C17.2739 82.3085 17.5825 81.6426 17.8912 80.9767C18.8329 78.9447 19.7745 76.9126 20.7156 74.8803C21.2479 73.7309 21.7802 72.5815 22.3126 71.4322C22.4168 71.2071 22.5211 70.9821 22.6285 70.7502C24.075 67.6278 25.5277 64.5083 26.9851 61.391C28.3371 58.4962 29.6748 55.5949 31.0123 52.6934C32.6148 49.2172 34.2285 45.7465 35.8493 42.2789C37.134 39.5302 38.41 36.7775 39.6867 34.0251C40.0914 33.1532 40.4964 32.2816 40.9017 31.4099C42.6502 27.6483 44.3903 23.8828 46.1272 20.1158C47.5937 16.9357 49.0683 13.7595 50.5525 10.5876C51.2904 9.00978 52.0247 7.43046 52.7519 5.84768C52.8622 5.60787 52.8622 5.60787 52.9746 5.36321C53.324 4.60307 53.6728 3.84263 54.0205 3.08172C54.1419 2.81718 54.2633 2.55263 54.3885 2.28007C54.5483 1.9306 54.5483 1.9306 54.7113 1.57407C54.9703 1.04603 54.9703 1.04603 55.2312 0.785156ZM50.0138 22.1765C49.9525 22.3201 49.8913 22.4636 49.8281 22.6114C48.2062 26.4001 46.5062 30.1476 44.7606 33.8806C44.1148 35.2625 43.4732 36.6462 42.8327 38.0305C42.6787 38.3635 42.6787 38.3635 42.5215 38.7031C42.3105 39.1593 42.0994 39.6154 41.8883 40.0716C40.1889 43.7439 38.482 47.4126 36.762 51.0754C35.2189 54.3617 33.6882 57.6536 32.1615 60.9475C31.6288 62.0964 31.0953 63.2448 30.5619 64.3933C29.4343 66.8207 28.3078 69.2487 27.1835 71.6778C26.761 72.5905 26.3384 73.5032 25.9159 74.4159C25.8097 74.6453 25.7035 74.8747 25.5941 75.111C24.1207 78.293 22.6367 81.4697 21.1436 84.6425C19.9348 87.2128 18.7537 89.7948 17.5843 92.3833C16.1554 95.5461 14.6884 98.6892 13.1984 101.824C13.0997 102.031 13.001 102.239 12.8993 102.453C12.7023 102.868 12.5052 103.282 12.3082 103.697C12.2119 103.9 12.1156 104.102 12.0164 104.311C11.9209 104.512 11.8255 104.713 11.7272 104.919C10.8518 106.763 9.98112 108.608 9.11839 110.457C8.89922 110.927 8.67903 111.396 8.45881 111.864C8.33005 112.141 8.2013 112.418 8.06865 112.703C7.90036 113.063 7.90036 113.063 7.72867 113.431C7.45864 113.98 7.45864 113.98 7.49188 114.525C33.8346 114.525 60.1773 114.525 87.3183 114.525C87.1081 113.474 86.865 112.663 86.4682 111.683C86.2829 111.223 86.2829 111.223 86.0938 110.754C85.9572 110.418 85.8205 110.082 85.6838 109.747C85.5412 109.394 85.3987 109.041 85.2563 108.688C84.8726 107.739 84.4876 106.789 84.1023 105.84C83.6985 104.845 83.2961 103.849 82.8935 102.854C82.2418 101.242 81.5893 99.6306 80.9364 98.0193C80.1294 96.0278 79.3241 94.0357 78.52 92.043C78.4064 91.7615 78.2929 91.4801 78.1758 91.1901C77.9527 90.6372 77.7296 90.0842 77.5064 89.5312C76.9547 88.1642 76.4024 86.7974 75.8502 85.4305C74.6133 82.3692 73.3769 79.3078 72.1406 76.2463C71.5687 74.8301 70.9968 73.4139 70.4249 71.9977C70.3118 71.7177 70.1987 71.4377 70.0822 71.1491C69.4027 69.4666 68.7231 67.784 68.0436 66.1015C65.6807 60.2514 63.3184 54.401 60.9577 48.55C60.2069 46.6892 59.4561 44.8284 58.7052 42.9677C58.0737 41.4025 57.4421 39.8373 56.8107 38.2721C56.1854 36.7222 55.56 35.1723 54.9345 33.6226C54.7017 33.0458 54.469 32.469 54.2363 31.8921C52.928 28.6485 51.6123 25.4082 50.2747 22.1765C50.1886 22.1765 50.1025 22.1765 50.0138 22.1765Z" fill="white"/>
</svg>
